<svg version="1.1" id="Layer_1" xmlns="http://www.w3.org/2000/svg" xmlns:xlink="http://www.w3.org/1999/xlink" x="0px" y="0px"
	 width="100%" viewBox="0 0 150 91" enable-background="new 0 0 150 91" xml:space="preserve">
<path fill="#000000" opacity="1.000000" stroke="none" 
	d="
M151.000000,90.000000 
	C151.611298,93.053154 149.292633,91.963249 148.023300,91.966957 
	C131.102951,92.016388 114.182411,92.000000 97.261925,92.000000 
	C84.820389,92.000000 72.378853,92.000000 59.177025,91.676826 
	C59.975166,90.537407 61.533600,89.721169 63.155571,89.306793 
	C65.060509,89.398956 66.896378,89.049919 68.744781,88.790039 
	C70.817047,88.498672 72.939476,87.917038 74.970177,88.129578 
	C77.975906,88.444176 80.892731,89.583717 83.898354,89.931038 
	C86.693993,90.254082 89.558319,89.932610 92.388748,90.017357 
	C95.788635,90.119156 99.220963,90.397011 97.949318,85.232323 
	C100.189407,85.232323 101.911171,85.232323 103.301598,85.232323 
	C103.206909,86.853455 103.124611,88.262512 103.042313,89.671570 
	C103.397911,89.968948 103.753510,90.266335 104.109108,90.563713 
	C105.336624,89.546875 107.354393,88.716339 107.646141,87.478882 
	C108.588982,83.479721 108.897255,79.330956 109.482147,75.002296 
	C107.976677,75.068947 106.568039,75.131310 105.203651,75.191711 
	C104.770187,81.392998 104.769470,81.393585 98.938728,80.451805 
	C99.305122,78.768196 99.666451,77.107849 100.054688,75.323822 
	C98.202301,75.323822 96.657494,75.323822 95.323669,75.323822 
	C94.732307,79.365723 94.191650,83.060974 93.703178,86.399612 
	C91.066635,86.148239 88.539627,85.907318 85.986557,85.663910 
	C86.638725,82.015991 87.228432,78.717438 87.840118,75.295967 
	C86.249779,75.295967 84.698601,75.295967 83.427345,75.295967 
	C82.524872,79.963989 81.687752,84.294022 80.707016,89.366852 
	C79.222778,84.060532 77.976532,79.605087 76.760986,75.259377 
	C73.095741,74.344543 71.086113,75.687111 69.513756,78.833199 
	C68.042076,81.777847 65.819748,84.347351 63.961292,86.655289 
	C64.642525,82.626450 65.290245,79.024292 65.955589,75.324066 
	C64.184181,75.324066 62.639629,75.324066 61.130878,75.324066 
	C60.716175,79.851440 61.423336,84.488052 56.797298,87.246063 
	C51.905869,83.433350 56.356541,79.117157 55.519920,74.868500 
	C49.598812,76.076897 43.114258,73.027565 37.149223,76.795609 
	C34.694218,72.857269 29.286215,74.102715 26.523609,75.383133 
	C20.951830,77.965523 24.454432,84.946632 21.477463,89.774651 
	C23.658131,89.774651 25.090450,89.774651 26.652954,89.774651 
	C26.940643,88.519211 27.232574,87.245247 27.428284,86.391197 
	C30.213919,87.940247 32.713902,89.330444 35.213886,90.720650 
	C35.517101,90.286301 35.820320,89.851959 36.123539,89.417610 
	C35.403603,88.230728 34.683666,87.043839 34.188911,86.228188 
	C35.500294,83.762985 36.672062,81.560234 38.030602,79.006386 
	C38.951706,79.057625 40.361416,79.136040 41.535896,79.201370 
	C40.979645,82.928177 40.468121,86.355301 39.884628,90.264610 
	C48.087402,89.436996 42.893002,81.937424 47.437248,79.035988 
	C47.968391,79.068802 49.472397,79.161720 51.068264,79.260307 
	C49.779583,83.931190 48.321751,88.156570 53.870296,90.514000 
	C54.085197,90.605293 53.964382,91.486740 54.000000,92.000000 
	C36.333256,92.000000 18.666510,92.000000 1.000000,92.000000 
	C1.000000,88.239571 1.000000,84.598961 1.342115,80.181969 
	C2.459017,81.797501 3.075768,84.257851 4.070457,86.554527 
	C4.628113,87.842125 5.920931,89.869637 6.689940,89.786316 
	C8.274228,89.614670 10.211781,88.598518 11.142377,87.308372 
	C13.451826,84.106613 15.277275,80.555740 17.297132,77.145103 
	C17.502346,77.223251 17.707560,77.301399 17.912773,77.379547 
	C17.251144,81.512512 16.589516,85.645477 15.738357,90.962364 
	C24.162125,87.447708 20.050600,79.911179 23.093870,75.677307 
	C14.846200,72.600060 10.704057,76.607071 8.609176,84.317993 
	C6.619545,80.154053 8.477558,73.648369 1.000000,75.000000 
	C1.000000,50.369587 1.000000,25.739176 1.000000,1.054382 
	C50.890202,1.054382 100.780479,1.054382 151.000000,1.054382 
	C151.000000,25.353239 151.000000,49.707962 150.540222,74.531342 
	C148.586395,75.000000 147.077866,75.134071 145.601059,74.974503 
	C141.409897,74.521660 138.693420,75.334160 138.872269,80.531372 
	C138.966034,83.255981 137.817596,86.023331 137.128891,89.245056 
	C134.615128,87.208160 133.663086,85.921013 135.903885,83.420074 
	C138.933701,80.038506 138.037445,75.485657 134.540756,75.089447 
	C131.607544,74.757095 128.279587,74.389526 125.749275,75.481216 
	C124.453186,76.040413 124.475655,79.751656 123.985847,82.056129 
	C123.516167,84.265907 123.163658,86.500412 122.735802,88.719452 
	C122.672035,89.050125 122.477272,89.355537 122.253525,89.884369 
	C123.953064,89.884369 125.240913,89.884369 126.596146,89.884369 
	C126.925323,88.500671 127.232307,87.210243 127.794609,84.846596 
	C129.096283,86.339012 129.628693,87.189735 130.377625,87.752075 
	C131.514267,88.605507 132.777252,89.844910 134.028564,89.896210 
	C139.677628,90.127792 145.341476,89.998970 151.000000,90.000000 
M88.500008,4.000000 
	C82.670761,4.000000 76.830872,4.217564 71.015541,3.933106 
	C66.113968,3.693345 61.939949,3.644059 62.733398,10.488431 
	C62.859367,11.575068 61.893013,12.788333 61.372147,14.092049 
	C58.646198,14.092049 56.009888,14.092049 53.019199,14.092049 
	C49.859444,31.649477 46.725788,49.061890 43.533390,66.800682 
	C61.419487,66.800682 78.517685,66.800682 95.746490,66.800682 
	C96.601860,63.205219 97.443527,59.667377 98.347794,55.866402 
	C101.349358,55.866402 104.133156,55.866402 106.950966,55.866402 
	C110.057076,38.477406 113.106430,21.406164 116.215607,4.000000 
	C106.791557,4.000000 98.145775,4.000000 88.500008,4.000000 
M109.963791,86.202034 
	C109.601585,87.319679 109.239388,88.437325 108.832237,89.693672 
	C123.134254,90.442322 121.562248,90.123955 121.493622,86.239983 
	C118.979523,85.997055 116.465431,85.754120 113.951332,85.511185 
	C113.994987,85.006897 114.038643,84.502609 114.082291,83.998322 
	C116.008530,83.998322 117.946106,84.118362 119.855286,83.937950 
	C120.596222,83.867928 121.272987,83.118950 121.978989,82.679268 
	C121.224945,82.119995 120.540184,81.259926 119.701805,81.066811 
	C118.164925,80.712807 116.537399,80.752350 114.947670,80.627808 
	C114.982826,80.155579 115.017982,79.683342 115.053139,79.211105 
	C117.565201,79.211105 120.077255,79.211105 122.996643,79.211105 
	C122.877663,77.467529 122.797707,76.295837 122.729553,75.297081 
	C118.569969,75.297081 114.819061,75.297081 111.242004,75.297081 
	C110.801064,78.842575 110.399254,82.073425 109.963791,86.202034 
z"/>
<path fill="#FFFFFF" opacity="1.000000" stroke="none" 
	d="
M63.092037,88.904930 
	C61.533600,89.721169 59.975166,90.537407 58.708366,91.676826 
	C57.611111,92.000000 56.222221,92.000000 54.416664,92.000000 
	C53.964382,91.486740 54.085197,90.605293 53.870296,90.514000 
	C48.321751,88.156570 49.779583,83.931190 51.068264,79.260307 
	C49.472397,79.161720 47.968391,79.068802 47.437248,79.035988 
	C42.893002,81.937424 48.087402,89.436996 39.884628,90.264610 
	C40.468121,86.355301 40.979645,82.928177 41.535896,79.201370 
	C40.361416,79.136040 38.951706,79.057625 38.030602,79.006386 
	C36.672062,81.560234 35.500294,83.762985 34.188911,86.228188 
	C34.683666,87.043839 35.403603,88.230728 36.123539,89.417610 
	C35.820320,89.851959 35.517101,90.286301 35.213886,90.720650 
	C32.713902,89.330444 30.213919,87.940247 27.428284,86.391197 
	C27.232574,87.245247 26.940643,88.519211 26.652954,89.774651 
	C25.090450,89.774651 23.658131,89.774651 21.477463,89.774651 
	C24.454432,84.946632 20.951830,77.965523 26.523609,75.383133 
	C29.286215,74.102715 34.694218,72.857269 37.149223,76.795609 
	C43.114258,73.027565 49.598812,76.076897 55.519920,74.868500 
	C56.356541,79.117157 51.905869,83.433350 56.797298,87.246063 
	C61.423336,84.488052 60.716175,79.851440 61.130878,75.324066 
	C62.639629,75.324066 64.184181,75.324066 65.955589,75.324066 
	C65.290245,79.024292 64.642525,82.626450 63.996620,86.613586 
	C63.998425,86.998566 64.068192,86.914429 63.684982,87.042534 
	C63.194012,87.810181 63.086250,88.449722 63.003700,89.041229 
	C63.028904,88.993187 63.092037,88.904930 63.092037,88.904930 
z"/>
<path fill="#FFFFFF" opacity="1.000000" stroke="none" 
	d="
M151.000000,89.600006 
	C145.341476,89.998970 139.677628,90.127792 134.028564,89.896210 
	C132.777252,89.844910 131.514267,88.605507 130.377625,87.752075 
	C129.628693,87.189735 129.096283,86.339012 127.794609,84.846596 
	C127.232307,87.210243 126.925323,88.500671 126.596146,89.884369 
	C125.240913,89.884369 123.953064,89.884369 122.253525,89.884369 
	C122.477272,89.355537 122.672035,89.050125 122.735802,88.719452 
	C123.163658,86.500412 123.516167,84.265907 123.985847,82.056129 
	C124.475655,79.751656 124.453186,76.040413 125.749275,75.481216 
	C128.279587,74.389526 131.607544,74.757095 134.540756,75.089447 
	C138.037445,75.485657 138.933701,80.038506 135.903885,83.420074 
	C133.663086,85.921013 134.615128,87.208160 137.128891,89.245056 
	C137.817596,86.023331 138.966034,83.255981 138.872269,80.531372 
	C138.693420,75.334160 141.409897,74.521660 145.601059,74.974503 
	C147.077866,75.134071 148.586395,75.000000 150.540222,75.000000 
	C151.000000,76.066673 151.000000,77.133339 150.552582,78.600006 
	C147.732559,79.113762 145.359970,79.227516 142.987381,79.341278 
	C143.001266,79.894188 143.015167,80.447090 143.029053,81.000000 
	C145.686035,81.000000 148.343018,81.000000 151.000000,81.000000 
	C151.000000,81.750000 151.000000,82.500000 150.630920,83.285217 
	C147.489944,83.736465 144.718033,84.152512 141.946136,84.568558 
	C141.983704,85.045700 142.021286,85.522850 142.058853,86.000000 
	C145.039246,86.000000 148.019623,86.000000 151.000000,86.000000 
	C151.000000,87.066673 151.000000,88.133339 151.000000,89.600006 
z"/>
<path fill="#FFFFFF" opacity="1.000000" stroke="none" 
	d="
M1.000000,75.416664 
	C8.477558,73.648369 6.619545,80.154053 8.609176,84.317993 
	C10.704057,76.607071 14.846200,72.600060 23.093870,75.677307 
	C20.050600,79.911179 24.162125,87.447708 15.738357,90.962364 
	C16.589516,85.645477 17.251144,81.512512 17.912773,77.379547 
	C17.707560,77.301399 17.502346,77.223251 17.297132,77.145103 
	C15.277275,80.555740 13.451826,84.106613 11.142377,87.308372 
	C10.211781,88.598518 8.274228,89.614670 6.689940,89.786316 
	C5.920931,89.869637 4.628113,87.842125 4.070457,86.554527 
	C3.075768,84.257851 2.459017,81.797501 1.342115,79.702789 
	C1.000000,78.611107 1.000000,77.222221 1.000000,75.416664 
z"/>
<path fill="#000000" opacity="1.000000" stroke="none" 
	d="
M151.000000,85.666672 
	C148.019623,86.000000 145.039246,86.000000 142.058853,86.000000 
	C142.021286,85.522850 141.983704,85.045700 141.946136,84.568558 
	C144.718033,84.152512 147.489944,83.736465 150.630920,83.660217 
	C151.000000,84.444443 151.000000,84.888893 151.000000,85.666672 
z"/>
<path fill="#000000" opacity="1.000000" stroke="none" 
	d="
M151.000000,80.666672 
	C148.343018,81.000000 145.686035,81.000000 143.029053,81.000000 
	C143.015167,80.447090 143.001266,79.894188 142.987381,79.341278 
	C145.359970,79.227516 147.732559,79.113762 150.552582,79.000000 
	C151.000000,79.444443 151.000000,79.888893 151.000000,80.666672 
z"/>
<path fill="#FFFFFF" opacity="1.000000" stroke="none" 
	d="
M89.000000,4.000000 
	C98.145775,4.000000 106.791557,4.000000 116.215607,4.000000 
	C113.106430,21.406164 110.057076,38.477406 106.950966,55.866402 
	C104.133156,55.866402 101.349358,55.866402 98.347794,55.866402 
	C97.443527,59.667377 96.601860,63.205219 95.746490,66.800682 
	C78.517685,66.800682 61.419487,66.800682 43.533390,66.800682 
	C46.725788,49.061890 49.859444,31.649477 53.019199,14.092049 
	C56.009888,14.092049 58.646198,14.092049 61.372147,14.092049 
	C61.893013,12.788333 62.859367,11.575068 62.733398,10.488431 
	C61.939949,3.644059 66.113968,3.693345 71.015541,3.933106 
	C76.830872,4.217564 82.670761,4.000000 89.000000,4.000000 
M96.073242,21.001558 
	C83.589584,21.001558 71.105927,21.001558 58.145725,21.001558 
	C55.755302,34.220921 53.380547,47.353645 50.957466,60.753601 
	C64.355392,60.753601 77.598503,60.753601 90.654503,60.753601 
	C92.424202,51.488827 94.273552,42.464188 95.824600,33.388573 
	C96.519989,29.319675 96.617973,25.148685 96.073242,21.001558 
z"/>
<path fill="#FFFFFF" opacity="1.000000" stroke="none" 
	d="
M63.963097,87.040268 
	C65.819748,84.347351 68.042076,81.777847 69.513756,78.833199 
	C71.086113,75.687111 73.095741,74.344543 76.760986,75.259377 
	C77.976532,79.605087 79.222778,84.060532 80.707016,89.366852 
	C81.687752,84.294022 82.524872,79.963989 83.427345,75.295967 
	C84.698601,75.295967 86.249779,75.295967 87.840118,75.295967 
	C87.228432,78.717438 86.638725,82.015991 85.986557,85.663910 
	C88.539627,85.907318 91.066635,86.148239 93.703178,86.399612 
	C94.191650,83.060974 94.732307,79.365723 95.323669,75.323822 
	C96.657494,75.323822 98.202301,75.323822 100.054688,75.323822 
	C99.666451,77.107849 99.305122,78.768196 98.938728,80.451805 
	C104.769470,81.393585 104.770187,81.392998 105.203651,75.191711 
	C106.568039,75.131310 107.976677,75.068947 109.482147,75.002296 
	C108.897255,79.330956 108.588982,83.479721 107.646141,87.478882 
	C107.354393,88.716339 105.336624,89.546875 104.109108,90.563713 
	C103.753510,90.266335 103.397911,89.968948 103.042313,89.671570 
	C103.124611,88.262512 103.206909,86.853455 103.301598,85.232323 
	C101.911171,85.232323 100.189407,85.232323 97.949318,85.232323 
	C99.220963,90.397011 95.788635,90.119156 92.388748,90.017357 
	C89.558319,89.932610 86.693993,90.254082 83.898354,89.931038 
	C80.892731,89.583717 77.975906,88.444176 74.970177,88.129578 
	C72.939476,87.917038 70.817047,88.498672 68.744781,88.790039 
	C66.896378,89.049919 65.060509,89.398956 63.155571,89.306793 
	C63.092037,88.904930 63.028904,88.993187 63.329498,88.935608 
	C63.776127,88.223503 63.922157,87.568962 64.068192,86.914429 
	C64.068192,86.914429 63.998425,86.998566 63.963097,87.040268 
z"/>
<path fill="#FFFFFF" opacity="1.000000" stroke="none" 
	d="
M109.980621,85.753159 
	C110.399254,82.073425 110.801064,78.842575 111.242004,75.297081 
	C114.819061,75.297081 118.569969,75.297081 122.729553,75.297081 
	C122.797707,76.295837 122.877663,77.467529 122.996643,79.211105 
	C120.077255,79.211105 117.565201,79.211105 115.053139,79.211105 
	C115.017982,79.683342 114.982826,80.155579 114.947670,80.627808 
	C116.537399,80.752350 118.164925,80.712807 119.701805,81.066811 
	C120.540184,81.259926 121.224945,82.119995 121.978989,82.679268 
	C121.272987,83.118950 120.596222,83.867928 119.855286,83.937950 
	C117.946106,84.118362 116.008530,83.998322 114.082291,83.998322 
	C114.038643,84.502609 113.994987,85.006897 113.951332,85.511185 
	C116.465431,85.754120 118.979523,85.997055 121.494957,86.233429 
	C121.562248,90.123955 123.134254,90.442322 108.832237,89.693672 
	C109.239388,88.437325 109.601585,87.319679 109.980621,85.753159 
z"/>
<path fill="#000000" opacity="1.000000" stroke="none" 
	d="
M63.684982,87.042534 
	C63.922157,87.568962 63.776127,88.223503 63.304295,88.983650 
	C63.086250,88.449722 63.194012,87.810181 63.684982,87.042534 
z"/>
<path fill="#000000" opacity="1.000000" stroke="none" 
	d="
M96.530151,21.012791 
	C96.617973,25.148685 96.519989,29.319675 95.824600,33.388573 
	C94.273552,42.464188 92.424202,51.488827 90.654503,60.753601 
	C77.598503,60.753601 64.355392,60.753601 50.957466,60.753601 
	C53.380547,47.353645 55.755302,34.220921 58.145725,21.001558 
	C71.105927,21.001558 83.589584,21.001558 96.530151,21.012791 
M66.997429,50.288998 
	C66.590881,52.738369 66.184326,55.187744 65.769051,57.689678 
	C78.676918,58.620598 80.340828,57.010990 78.392838,46.000145 
	C75.643799,46.000145 72.829857,46.223969 70.068459,45.938847 
	C67.153389,45.637867 66.711899,47.055218 66.997429,50.288998 
M82.928741,24.590755 
	C79.065971,24.328386 75.203201,24.066019 71.323700,23.802517 
	C70.807465,27.834091 70.369904,31.251280 69.916473,34.792389 
	C74.237900,34.792389 77.981773,34.792389 81.798546,34.792389 
	C82.213783,31.573545 82.604279,28.546513 82.928741,24.590755 
z"/>
<path fill="#FFFFFF" opacity="1.000000" stroke="none" 
	d="
M66.998642,49.828403 
	C66.711899,47.055218 67.153389,45.637867 70.068459,45.938847 
	C72.829857,46.223969 75.643799,46.000145 78.392838,46.000145 
	C80.340828,57.010990 78.676918,58.620598 65.769051,57.689678 
	C66.184326,55.187744 66.590881,52.738369 66.998642,49.828403 
z"/>
<path fill="#FFFFFF" opacity="1.000000" stroke="none" 
	d="
M82.961761,25.055119 
	C82.604279,28.546513 82.213783,31.573545 81.798546,34.792389 
	C77.981773,34.792389 74.237900,34.792389 69.916473,34.792389 
	C70.369904,31.251280 70.807465,27.834091 71.323700,23.802517 
	C75.203201,24.066019 79.065971,24.328386 82.961761,25.055119 
z"/>
</svg>