<?xml version="1.0" encoding="utf-8"?>
<!-- Generator: Adobe Illustrator 22.1.0, SVG Export Plug-In . SVG Version: 6.00 Build 0)  -->
<svg version="1.1" id="Layer_1" xmlns="http://www.w3.org/2000/svg" xmlns:xlink="http://www.w3.org/1999/xlink" x="0px" y="0px"
	 viewBox="0 0 48 48" style="enable-background:new 0 0 48 48;" xml:space="preserve">
<style type="text/css">
	.st0{clip-path:url(#SVGID_2_);fill:#27AA27;}
</style>
<g>
	<defs>
		<rect id="SVGID_1_" x="6.7" y="0.3" width="35.7" height="47.6"/>
	</defs>
	<clipPath id="SVGID_2_">
		<use xlink:href="#SVGID_1_"  style="overflow:visible;"/>
	</clipPath>
	<path class="st0" d="M18.6,0.3L18.6,0.3C12,0.3,6.7,5.6,6.7,12.2v35.7L18.6,36h11.9c6.6,0,11.9-5.3,11.9-11.9V0.3H18.6z M30.4,24.1
		H18.6V12.2h11.9V24.1z M40.3,34.8h-0.4v-0.2h1.1v0.2h-0.4v1.2h-0.2V34.8z M42.1,35.1l-0.3,0.7h-0.3L41.3,35v0.9H41v-1.4h0.3l0.4,1
		l0.4-1h0.2v1.4h-0.2V35.1z"/>
</g>
</svg>
