<?xml version="1.0" encoding="utf-8"?>
<!-- Generator: Adobe Illustrator 25.0.1, SVG Export Plug-In . SVG Version: 6.00 Build 0)  -->
<svg version="1.0" id="Layer_1" xmlns="http://www.w3.org/2000/svg" xmlns:xlink="http://www.w3.org/1999/xlink" x="0px" y="0px"
	 viewBox="0 0 1340.4 945.8" style="enable-background:new 0 0 1340.4 945.8;" xml:space="preserve">
<style type="text/css">
	.st0{fill:#231F20;}
	.st1{fill:#236DB6;}
	.st2{fill:none;}
</style>
<path class="st0" d="M791.8,714.3h18.7l-3.9,28.6h11.9l-2.2,16.2h-11.9l-8.2,60.5h-18.8l8.3-60.5h-7.5l2.2-16.2h7.5L791.8,714.3z"/>
<path class="st0" d="M374.8,744.4c-7.5-4-16.8-5.1-21.5-5.1c-6.3-0.1-12.4,2-17.2,6c-4.8,3.8-7.5,9.6-7.3,15.7
	c0.1,4.8,1.7,9.4,4.6,13.1c2.2,3,6.2,6.5,12,10.6c5,3.6,8.1,6,9.2,7.4c1,1.1,1.6,2.5,1.7,4c0,1.8-0.7,3.4-2.1,4.6
	c-1.7,1.2-3.9,1.8-6,1.7c-6.2,0-16.2-2.7-22.6-8.4l-10.9,13c4.8,4.2,10.3,7.6,16.2,9.9c5.3,1.9,10.8,2.8,16.4,2.8
	c8.9,0.1,15.6-2.5,20.3-7.6s7-10.4,7-16.1c0-4.2-1.2-8.4-3.4-12c-2.2-3.6-7-8.1-14.2-13.2c-4.5-3.3-7.2-5.4-8.1-6.6
	c-0.9-0.9-1.4-2.1-1.4-3.4c0-1.3,0.7-2.5,1.7-3.2c1.3-0.9,2.8-1.4,4.3-1.4c5.3-0.6,12.5,1.5,15.2,2.9c2.9,1.4,5.6,3,8.1,5l8.1-12.9
	C381.9,748.5,378.5,746.2,374.8,744.4z"/>
<polygon class="st0" points="483.5,819.5 502.2,819.5 516.7,713.4 497.9,713.4 "/>
<path class="st0" d="M565.8,739.5c-7.1,0.4-13.8,1.9-20.3,5.8c-6.5,3.8-11.8,9.4-15.4,16c-3.8,6.6-5.8,14-5.8,21.6
	c-0.1,9.5,3,18.7,9,26c6,7.5,14.1,11.2,24.2,11.2c4.1,0.1,8.1-0.7,11.9-2.3c4.2-2,8.1-4.7,11.4-7.9l-1.1,9.1h18.6
	c0,0,5.5-30.7,5.8-36c0.3-5.3,1.7-16-6.3-27.2C589.4,744.1,575.2,739,565.8,739.5z M581.8,789.4c-1.9,4-4.9,7.3-8.7,9.7
	c-3.7,2.1-7.9,3.2-12.1,3.1c-5.1,0.2-10.1-1.8-13.6-5.5c-3.5-3.7-5.3-8.5-5.3-14.5c0-7.8,2.3-14.2,7-19.1c4.4-4.8,10.6-7.5,17.1-7.4
	c5.8,0,10.4,1.8,13.9,5.5s5.2,8.6,5.2,14.7C585.1,780.6,583.9,785.3,581.8,789.4L581.8,789.4z"/>
<path class="st0" d="M739.1,740.9c-7.8,0-15.2,3.3-22.4,9.7l5.1-37.3h-18.7l-14.5,106.1h18.7l3.7-27c1.4-10.7,3-17.9,4.6-21.8
	c1.5-3.7,4.1-6.8,7.3-9.1c2.7-2,6-3.2,9.4-3.3c3.3,0,5.8,0.8,7.5,2.5c1.8,1.7,2.6,4,2.6,7.1c-0.1,3.3-0.4,6.5-0.8,9.7l-5.8,41.9
	h18.7l5.9-42.9c0.7-4.5,1.1-9,1.2-13.5c0.2-5.9-2.1-11.7-6.3-15.9C751.2,743.1,745.7,740.9,739.1,740.9z"/>
<path class="st0" d="M886.2,744.3c-5.7-3.2-12.1-4.8-18.6-4.7c-11.7,0-21.9,4.2-30.7,12.8c-8.8,8.5-13.2,19.2-13.2,32
	c0,10.7,3.3,19.3,9.7,25.8s15.1,9.9,26,9.9c12.5,0,23-4.2,31.5-12.6c8.3-7.9,12.9-19,12.8-30.5c0.1-6.8-1.5-13.5-4.6-19.5
	C896.2,752,891.7,747.4,886.2,744.3z M879,794.6c-4.2,5.3-10.1,8-18.1,8c-5.6,0-10-1.7-13.4-5.3s-5-8.1-5-13.8
	c0-6.5,2.2-12.8,6.2-17.9c4.1-5.5,10-8.3,17.7-8.3c5.1-0.2,10,1.7,13.6,5.3c3.5,3.5,5.3,8.1,5.3,13.7
	C885.4,782.9,883.1,789.4,879,794.6L879,794.6z"/>
<path class="st0" d="M672.8,744.4c-7.5-4-16.8-5.1-21.5-5.1c-6.3-0.1-12.4,2-17.2,6c-4.8,3.8-7.5,9.6-7.3,15.7
	c0.1,4.8,1.7,9.4,4.6,13.1c2.2,3,6.2,6.5,12,10.6c5,3.6,8.1,6,9.2,7.4c1,1.1,1.6,2.5,1.7,4c0,1.8-0.7,3.4-2.1,4.6
	c-1.7,1.2-3.9,1.8-6,1.7c-6.2,0-16.2-2.7-22.7-8.4l-10.9,13c4.8,4.2,10.3,7.6,16.2,9.9c5.3,1.9,10.8,2.8,16.4,2.8
	c8.8,0.1,15.7-2.5,20.3-7.6s7-10.4,7-16.1c0-4.2-1.2-8.4-3.4-12c-2.2-3.7-7-8.1-14.2-13.3c-4.5-3.3-7.2-5.4-8.1-6.6
	c-0.9-0.9-1.4-2.1-1.4-3.4c0.1-1.3,0.7-2.5,1.8-3.2c1.3-0.9,2.8-1.4,4.3-1.4c5.3-0.6,12.5,1.5,15.2,2.9c2.9,1.4,5.6,3,8.1,5
	l8.1-12.9C679.9,748.4,676.5,746.2,672.8,744.4z"/>
<path class="st0" d="M441.7,739.7c-12.3-0.8-24.3,3.5-33.4,11.9c-3.2,2.8-9.3,10.9-11.1,21.9c-1,6-10.1,72.4-10.1,72.4l18.7-7.3
	l5.2-31.3c2.3,3.9,5.7,7.2,9.7,9.4c4,2.2,8.4,3.3,12.9,3.2c7,0,13.9-2,19.9-5.7c6.4-3.9,11.7-9.4,15.2-15.9c3.7-6.6,5.6-14,5.6-21.5
	c0.1-9.4-3-18.5-8.8-25.8C459.7,743.5,451.7,740.2,441.7,739.7z M448.9,795.4c-4.2,4.8-10.3,7.5-16.7,7.3c-5.6,0-10.2-1.8-13.6-5.5
	s-5.2-8.5-5.2-14.5c0-4.7,1.2-9.3,3.4-13.5c1.9-4,4.9-7.3,8.5-9.7c3.6-2.1,7.7-3.2,11.9-3.1c5-0.2,9.9,1.8,13.4,5.5
	c3.5,3.7,5.2,8.5,5.2,14.5C455.8,784.2,453.5,790.4,448.9,795.4z"/>
<path class="st0" d="M963.3,739c-12.3-0.8-24.3,3.5-33.4,11.8c-3.2,2.8-9.3,10.9-11.1,21.9c-1,6-10.1,72.5-10.1,72.5l18.7-7.3
	l5.2-31.2c2.4,3.9,5.7,7.2,9.7,9.4c4,2.2,8.4,3.3,13,3.3c7,0,13.9-2,19.9-5.8c6.4-3.9,11.7-9.4,15.2-16c3.7-6.6,5.6-14,5.6-21.5
	c0.1-9.4-3-18.6-8.8-25.9C981.3,742.8,973.4,739.5,963.3,739z M970.5,794.6c-4.2,4.8-10.3,7.5-16.7,7.3c-5.6,0-10.2-1.8-13.6-5.5
	s-5.2-8.5-5.2-14.5c0-4.7,1.2-9.3,3.4-13.5c1.9-4,4.8-7.3,8.5-9.7c3.6-2.1,7.7-3.2,11.9-3.1c5.1-0.2,10,1.8,13.4,5.5
	c3.5,3.7,5.2,8.5,5.2,14.5C977.4,783.4,975.1,789.7,970.5,794.6z"/>
<path class="st0" d="M1021.1,727.9c0-0.2-0.1-0.4-0.1-0.6v-0.5c0-0.2-0.1-0.5-0.1-0.7c0-0.2-0.1-0.4-0.2-0.6
	c-0.1-0.2-0.2-0.3-0.4-0.5c-0.2-0.1-0.4-0.2-0.6-0.3l0,0c0.5-0.1,0.8-0.5,1.1-0.9c0.3-0.4,0.4-0.9,0.4-1.4c0-0.3-0.1-0.6-0.2-1
	c-0.1-0.3-0.3-0.6-0.5-0.8c-0.2-0.2-0.5-0.4-0.8-0.5c-0.3-0.1-0.7-0.2-1.1-0.2h-4.9v9h2v-3.5h2c0.4,0,0.8,0.1,1.1,0.3
	c0.3,0.3,0.4,0.7,0.4,1.1c0.1,0.4,0.1,0.8,0.1,1.1c0,0.3,0,0.7,0.2,1h2c-0.1-0.2-0.2-0.3-0.2-0.5
	C1021.1,728.4,1021.1,728.2,1021.1,727.9z M1018.8,723.7c-0.3,0.2-0.6,0.3-1,0.3h-2.2v-2.5h2.2c0.4,0,0.7,0.1,1,0.3
	c0.3,0.3,0.4,0.6,0.3,1C1019.2,723.1,1019.1,723.5,1018.8,723.7z"/>
<path class="st0" d="M1017,716.2c-4.7,0-8.5,3.9-8.5,8.6c0,4.7,3.9,8.5,8.6,8.5c4.7,0,8.5-3.8,8.5-8.5
	C1025.6,720,1021.7,716.2,1017,716.2z M1017,731.7c-3.9,0-7-3.1-7-7s3.1-7,7-7s7,3.1,7,7S1020.9,731.7,1017,731.7z"/>
<path class="st1" d="M853.6,398.8c0,0-0.3-1.4-0.9-3.8c-5.9-27-11.7-87.6,27.3-113.7c38.7-25.8,76.8,4.3,82.5,20.4
	c8.4,23.2-10.6,33.8-43.9,42.7C866.3,358.2,854.5,392,853.6,398.8z"/>
<path class="st1" d="M865,440.7c-78-38-69.5-100.8-79.2-132.4C730.3,114.2,619.7,100.3,607,99.9c-30.7-0.9-84.6,13.1-88.7,74.9
	c-5.8,88,117.9,82.2,163.5,117.9c31.2,24.4,52.9,78.5-4.5,66.7c-69.5-26-150.8-18.5-184.4-4.4c-57,23.9-77,54.9-82.7,61.3
	S334.1,521,420,601.8c67.6,63.5,159.3,18.6,195.6-32c21.8-30.3,37.1-60.3,54.2-86.7c67.2-82.4,148-28.4,169.1,9.8
	c32.6,58.5,55.4,88,84.6,68.3C952.7,541.6,948.7,481.5,865,440.7z"/>
<rect x="270.2" y="72.9" class="st2" width="800" height="800"/>
</svg>
