<?xml version="1.0" encoding="UTF-8" standalone="no"?>
<svg xmlns="http://www.w3.org/2000/svg" xml:space="preserve" width="64" height="64" viewBox="0 0 48 48">
  <defs>
    <linearGradient id="e" x1="22.669" x2="23.184" y1="9.3193" y2="11.242" gradientUnits="userSpaceOnUse">
      <stop offset="0" stop-color="#fff"/>
      <stop offset="1" stop-color="#cecedb"/>
    </linearGradient>
    <linearGradient id="f" x1="22.367" x2="24.236" y1="7.8496" y2="14.824" gradientUnits="userSpaceOnUse">
      <stop offset="0" stop-color="#cecedb"/>
      <stop offset=".0054" stop-color="#cbcbd7"/>
      <stop offset=".0705" stop-color="#a5a5ad"/>
      <stop offset=".1338" stop-color="#87878c"/>
      <stop offset=".1941" stop-color="#727274"/>
      <stop offset=".2502" stop-color="#656566"/>
      <stop offset=".2977" stop-color="#616161"/>
      <stop offset="1"/>
    </linearGradient>
    <linearGradient id="d" x1="311.22" x2="311.22" y1="17.458" y2="23.226" gradientTransform="matrix(1 0 .2679 1 -292.71 0)" gradientUnits="userSpaceOnUse">
      <stop offset="0" stop-color="#cecedb"/>
      <stop offset=".2977" stop-color="#828282"/>
      <stop offset="1"/>
    </linearGradient>
    <linearGradient id="c" x1="24.16" x2="24.16" y1="18.868" y2="20.534" gradientUnits="userSpaceOnUse">
      <stop offset="0" stop-color="#fff"/>
      <stop offset="1" stop-color="#e9e9ef"/>
    </linearGradient>
    <linearGradient id="b" x1="24.947" x2="24.947" y1="21.048" y2="23.1" gradientUnits="userSpaceOnUse">
      <stop offset="0" stop-color="#616161"/>
      <stop offset=".1569" stop-color="#88888a"/>
      <stop offset=".326" stop-color="#ababae"/>
      <stop offset=".4963" stop-color="#c6c6ca"/>
      <stop offset=".6657" stop-color="#d9d9df"/>
      <stop offset=".834" stop-color="#e5e5eb"/>
      <stop offset="1" stop-color="#e9e9ef"/>
    </linearGradient>
    <linearGradient id="a" x1="24.948" x2="24.948" y1="49.257" y2="21.948" gradientUnits="userSpaceOnUse">
      <stop offset=".0056" stop-color="#fff"/>
      <stop offset=".045" stop-color="#f8f8fa"/>
      <stop offset=".1027" stop-color="#e4e4ec"/>
      <stop offset=".1713" stop-color="#c4c4d4"/>
      <stop offset=".1854" stop-color="#bdbdcf"/>
      <stop offset=".1896" stop-color="#bebed0"/>
      <stop offset=".2751" stop-color="#cacad8"/>
      <stop offset=".3595" stop-color="#cecedb"/>
      <stop offset=".7865" stop-color="#e9e9ef"/>
    </linearGradient>
  </defs>
  <path d="M44.5 17.527H10.604l32.735-8.771c.188-.051.346-.171.443-.341.097-.169.123-.365.072-.554l-1.08-4.032c-.048-.185-.174-.348-.341-.444-.169-.097-.366-.123-.554-.072l-.246.067s.041.021.051.027c-.27.034-.743.159-1.664.406L4.088 13.439c-.188.05-.345.171-.443.339-.065.114-.099.238-.099.365 0 .064.008.128.025.19l1.073 4.002v4.095c0 .402.327.729.729.729h1.524v21.457c0 .366.273.678.636.725l.22.027c.238.029.863.096 1.593.096h32.758c1.35 0 2.447-1.114 2.447-2.484V23.155c.378-.027.68-.34.68-.724v-4.174c0-.402-.328-.73-.731-.73z" opacity=".2"/>
  <path d="M44.112 17.139H10.215L42.95 8.367c.188-.05.346-.171.443-.341.097-.168.123-.365.073-.554l-1.08-4.032c-.049-.185-.173-.347-.341-.444-.169-.097-.365-.123-.554-.072l-.248.066.052.026c-.271.035-.743.159-1.664.406L3.699 13.051c-.188.05-.345.171-.443.339-.065.114-.098.239-.098.365 0 .063.008.127.025.19l1.073 4.003v4.093c0 .403.328.73.73.73H6.51v21.457c0 .366.273.677.636.725l.219.027c.238.029.863.096 1.593.096h32.757c1.351 0 2.448-1.115 2.448-2.484V22.767c.378-.027.679-.34.679-.725v-4.173c0-.403-.327-.73-.73-.73z" opacity=".2"/>
  <path d="M43.723 16.75H9.826l32.735-8.771c.188-.051.346-.172.443-.341s.123-.365.072-.554l-1.08-4.032c-.049-.186-.174-.348-.341-.444-.169-.097-.365-.123-.554-.072l-.248.067.052.026c-.271.034-.743.159-1.664.406l-35.93 9.627c-.188.05-.345.171-.443.339-.065.114-.098.239-.098.365 0 .063.008.128.025.19l1.073 4.002v4.094c0 .402.328.73.73.73h1.524v21.674c0 .41134.22768.63147.636.63147l34.569-.0002c1.351 0 2.448-1.114 2.448-2.484v-19.826c.378-.027.679-.339.679-.725v-4.173c-.001-.402-.329-.729-.731-.729z"/>
  <path fill="#fff" d="M7.102 43.7h34.224c.81 0 1.467-.671 1.467-1.498v-21.47c0-.828-.657-1.499-1.467-1.499H8.569c-.81 0-1.467.671-1.467 1.499V43.7z"/>
  <path fill="url(#a)" d="M7.102 43.7h34.224c.81 0 1.467-.671 1.467-1.498v-21.47c0-.828-.657-1.499-1.467-1.499H8.569c-.81 0-1.467.671-1.467 1.499V43.7z" opacity=".8"/>
  <path fill="#fff" d="M41.326 19.233H8.569c-.81 0-1.467.671-1.467 1.499V43.7h34.224c.81 0 1.467-.671 1.467-1.498v-21.47c0-.828-.657-1.499-1.467-1.499zm.444 22.969c0 .262-.199.474-.443.474H8.126V20.732c0-.261.199-.475.443-.475h32.757c.244 0 .443.213.443.475v21.47h.001z" opacity=".5"/>
  <path fill="url(#b)" d="M7.102 23.682s.657.016 1.467.016h32.757c.81 0 1.467-.123 1.467-.274v-3.917c0-.15-.657-.273-1.467-.273H8.569c-.81 0-1.467.123-1.467.273v4.175z" opacity=".8"/>
  <path d="M43.467 17.139H4.597c-.188 0-.341.153-.341.341v4.173c0 .188.153.341.341.341h39.125c.189 0 .342-.153.342-.341V17.48c0-.188-.152-.341-.342-.341h-.255z"/>
  <path fill="url(#c)" d="M4.854 17.735h38.613v3.661H4.854z"/>
  <path fill="url(#d)" d="M7.762 21.396h3.662l-1.627-3.661H6.136l1.626 3.661m17.013-3.661h-3.66l1.626 3.661h3.661l-1.627-3.661m-7.489 0h-3.662l1.627 3.661h3.662l-1.627-3.661m22.47 0h-3.663l1.628 3.661h3.661l-1.626-3.661m-7.49 0h-3.662l1.627 3.661h3.664l-1.629-3.661z"/>
  <path d="m41.203 2.911-.248.067h.001L3.411 13.038c-.088.023-.162.081-.208.159s-.058.171-.034.258l1.081 4.033c.049.182.236.29.418.241L42.461 7.603c.182-.049.29-.236.24-.418l-1.079-4.032c-.023-.087-.081-.162-.159-.208-.079-.045-.172-.057-.26-.034z"/>
  <path fill="url(#e)" d="M4.761 17.085 42.06 7.091l-.949-3.536-37.297 9.993z"/>
  <path fill="url(#f)" d="m7.57 16.333 3.538-.947-1.571-3.371L6 12.963l1.57 3.37m16.434-8.194-3.537.948 1.571 3.37 3.538-.948-1.572-3.37m-7.234 1.938-3.537.948 1.572 3.37 3.536-.949-1.571-3.369m21.703-5.815-3.535.947 1.571 3.37 3.537-.947-1.573-3.37m-7.234 1.939-3.538.946 1.572 3.371 3.537-.948-1.571-3.369z"/>
  <path fill="none" d="M0 48V0h48v48"/>
</svg>