<?xml version="1.0" encoding="UTF-8"?><svg id="logo" xmlns="http://www.w3.org/2000/svg" viewBox="0 0 580.75 159.97"><defs><style>.cls-1{fill:#da291c;}.cls-2{fill:none;}</style></defs><rect class="cls-2" width="580.75" height="159.97"/><path d="m325.61,64.73v-11.41h13.02v53.32h-13.02v-41.91Zm-57.44-11.41h50.29v11.45h-23.57v41.87h-13.02v-41.87h-13.71v-11.45Zm259.38,0v11.45h-23.57v41.87h-13.02v-41.87h-13.71v-11.45h50.29Zm-474.23,0h56.39v11.45h-43.37v11.4h36.99v11.45h-36.99v19.01h-13.02v-53.32Zm364.3,0h52.49v11.45h-39.47v9.48h32.39v11.45h-32.39v9.48h40.18v11.45h-53.2v-53.32Zm-10.06,15.07v38.25h-13.02v-38.25c0-2-1.62-3.61-3.61-3.61h-29.22s0,41.86,0,41.86h-13.02v-53.32h43.8c8.32,0,15.07,6.75,15.07,15.07Zm-159.43-15.07h-44.52s0,53.32,0,53.32h13.02v-19.03h29.3c1.57.05,2.83,1.34,2.83,2.93v16.11h13.02v-16.25c0-2.85-1.56-5.33-3.88-6.64,2.82-2.62,4.59-6.36,4.59-10.51v-5.56c0-7.93-6.43-14.35-14.35-14.35Zm1.34,19.89c0,1.63-1.32,2.95-2.95,2.95h-29.89v-11.39l29.89-.03c1.63,0,2.95,1.32,2.95,2.95v5.54Z"/><path class="cls-1" d="m193.56,73.07v13.84h-21.53v-13.84h21.53Zm-48.96,33.58h0s21.53,0,21.53,0h0v-13.84h-21.53v13.83Zm48.95-41.73c0-6.4-5.19-11.6-11.6-11.6h-9.93v13.84h21.52v-2.24Zm-48.95-11.59v13.84h21.53v-13.84h0s-21.53,0-21.53,0h0Zm-27.43,19.74h0v13.84h21.53v-13.84h-21.53Zm54.86,33.58h9.93c6.4,0,11.6-5.19,11.6-11.6v-2.24h-21.52v13.84Zm-54.86-11.6c0,6.4,5.19,11.6,11.6,11.6h9.93s0-13.83,0-13.83h-21.53v2.24Zm0-30.13v2.24h21.53v-13.84h-9.93c-6.4,0-11.6,5.19-11.6,11.6Z"/></svg>