<svg width="51" height="30" viewBox="0 0 51 30" fill="none" xmlns="http://www.w3.org/2000/svg">
<path d="M14.1352 10.8903C14.1352 11.5142 14.1986 12.0097 14.3254 12.3784C14.4522 12.7487 14.6324 13.1474 14.8659 13.5762C14.9427 13.713 14.9827 13.8381 14.9827 13.9548C14.9827 14.13 14.8759 14.2952 14.6607 14.452L13.6097 15.1526C13.4546 15.2494 13.3078 15.2994 13.1727 15.2994C12.9975 15.2994 12.8323 15.2227 12.6772 15.0659C12.4436 14.8323 12.2435 14.5738 12.0783 14.2918C11.9131 14.0099 11.743 13.6846 11.5678 13.3142C10.2633 14.8524 8.62838 15.6214 6.66319 15.6214C5.26186 15.6214 4.15248 15.2227 3.33504 14.4236C2.51761 13.6262 2.10889 12.5552 2.10889 11.2123C2.10889 9.79258 2.61436 8.64817 3.62699 7.78235C4.63794 6.91653 6.0009 6.48279 7.71418 6.48279C8.27805 6.48279 8.86694 6.52616 9.48085 6.61458C10.0948 6.703 10.732 6.82478 11.3927 6.97993V5.75377C11.3927 4.48924 11.1291 3.5984 10.6052 3.08291C10.0797 2.56742 9.17389 2.30885 7.88935 2.30885C7.30546 2.30885 6.70656 2.38225 6.09432 2.52739C5.48207 2.67419 4.88317 2.8627 4.29929 3.09626C4.02737 3.21303 3.83218 3.28644 3.7154 3.3148C3.59863 3.34316 3.51188 3.35817 3.45349 3.35817C3.21994 3.35817 3.10316 3.18301 3.10316 2.83268V2.01524C3.10316 1.74331 3.14153 1.54813 3.21994 1.43135C3.29668 1.31457 3.45349 1.1978 3.68704 1.08102C4.27093 0.789079 4.97159 0.537174 5.78903 0.321971C6.60647 0.108436 7.47229 0 8.38648 0C10.3717 0 11.8264 0.452094 12.7506 1.35795C13.6748 2.26214 14.1369 3.6301 14.1369 5.46016V10.8903H14.1352ZM7.36218 13.431C7.9077 13.431 8.48157 13.3293 9.08548 13.1241C9.68938 12.9205 10.2132 12.5652 10.662 12.0581C10.9339 11.7478 11.1241 11.3908 11.2308 10.992C11.3376 10.5933 11.391 10.1112 11.391 9.54735V8.84669C10.9039 8.72991 10.3934 8.63816 9.85787 8.56976C9.32237 8.50136 8.80188 8.468 8.2964 8.468C7.18702 8.468 6.35957 8.69154 5.81405 9.13863C5.26854 9.58739 4.99661 10.2297 4.99661 11.0655C4.99661 11.8445 5.20181 12.4334 5.60886 12.8321C6.01758 13.2308 6.60146 13.431 7.36051 13.431H7.36218ZM20.7632 15.2411C20.4712 15.2411 20.256 15.1877 20.1209 15.0809C19.9841 14.9741 19.8673 14.7556 19.7706 14.4236L15.8585 1.51977C15.7601 1.18946 15.7134 0.964244 15.7134 0.849135C15.7134 0.577212 15.8485 0.440416 16.1221 0.440416H17.757C18.0673 0.440416 18.2875 0.4938 18.4143 0.600567C18.5411 0.707335 18.6528 0.927543 18.7496 1.25785L21.5522 12.2933L24.1497 1.25785C24.2264 0.927543 24.3349 0.709003 24.4717 0.600567C24.6068 0.4938 24.832 0.440416 25.1423 0.440416H26.4852C26.7972 0.440416 27.0207 0.4938 27.1575 0.600567C27.2927 0.707335 27.4011 0.927543 27.4778 1.25785L30.1053 12.4401L32.9947 1.25619C33.0915 0.925874 33.2033 0.707335 33.33 0.598899C33.4568 0.492131 33.6754 0.438748 33.9873 0.438748H35.5338C35.8057 0.438748 35.9425 0.575544 35.9425 0.847467C35.9425 0.925875 35.9325 1.01262 35.9141 1.10938C35.8941 1.20781 35.8558 1.34294 35.7974 1.5181L31.7686 14.422C31.6701 14.7539 31.5534 14.9725 31.4182 15.0792C31.2814 15.186 31.0679 15.2394 30.776 15.2394H29.3446C29.0326 15.2394 28.8091 15.181 28.6723 15.0642C28.5355 14.9475 28.4287 14.7239 28.352 14.3919L25.7529 3.64845L23.1838 14.3919C23.1054 14.7239 22.9986 14.9475 22.8635 15.0642C22.7267 15.181 22.5031 15.2394 22.1912 15.2394H20.7598L20.7632 15.2411ZM42.1917 15.6798C41.3159 15.6798 40.4601 15.5831 39.6227 15.3879C38.7852 15.1944 38.1429 14.9691 37.6958 14.7156C37.4239 14.5604 37.2521 14.4053 37.1853 14.2485C37.117 14.0933 37.0836 13.9382 37.0836 13.7813V12.9339C37.0836 12.5836 37.2104 12.4084 37.4639 12.4084C37.5607 12.4084 37.6625 12.4284 37.7709 12.4668C37.8777 12.5068 38.0195 12.5652 38.1946 12.6419C38.7585 12.8955 39.3724 13.0907 40.033 13.2258C40.6937 13.3626 41.356 13.431 42.0182 13.431C43.0692 13.431 43.8817 13.2458 44.4555 12.8755C45.0294 12.5068 45.3164 11.9796 45.3164 11.299C45.3164 10.8319 45.1662 10.4432 44.8643 10.1312C44.5623 9.81927 44.0035 9.52733 43.186 9.25541L40.7621 8.49636C39.5359 8.10766 38.6451 7.54379 38.0912 6.80309C37.5373 6.06406 37.2588 5.25663 37.2588 4.3808C37.2588 3.68014 37.4089 3.06289 37.7108 2.52739C38.0128 1.99188 38.4115 1.53478 38.907 1.15442C39.4024 0.775733 39.983 0.487127 40.6436 0.293611C41.3042 0.100095 42.0049 0.00166824 42.7456 0.00166824C43.1143 0.00166824 43.4896 0.0266919 43.87 0.0750709C44.2504 0.12345 44.609 0.186843 44.9493 0.265251C45.2897 0.343658 45.6066 0.430407 45.8986 0.527165C46.1905 0.625591 46.4241 0.722349 46.5992 0.819107C46.8328 0.955903 46.9979 1.0927 47.0964 1.22783C47.1931 1.36462 47.2415 1.54813 47.2415 1.78335V2.57076C47.2415 2.92109 47.1147 3.09626 46.8612 3.09626C46.7244 3.09626 46.5108 3.02786 46.2189 2.89106C45.2646 2.46399 44.1936 2.24879 43.0075 2.24879C42.0533 2.24879 41.3142 2.40561 40.7887 2.7159C40.2633 3.02786 40.0013 3.52333 40.0013 4.20564C40.0013 4.67275 40.1665 5.06645 40.4968 5.38842C40.8271 5.70872 41.441 6.01568 42.3369 6.30762L44.7008 7.06667C45.9069 7.45704 46.7694 7.99088 47.2849 8.67319C47.8004 9.35383 48.0589 10.1329 48.0589 11.0087C48.0589 11.7294 47.9138 12.3767 47.6219 12.9506C47.3299 13.5244 46.9262 14.0166 46.4107 14.4253C45.8952 14.834 45.2763 15.146 44.5573 15.3595C43.8366 15.573 43.0492 15.6798 42.1934 15.6798H42.1917Z" fill="#161D26"/>
<path d="M25.6111 26.3619C31.6985 26.3619 38.3915 25.099 44.549 22.4866C45.4782 22.0929 46.2573 23.0971 45.3481 23.7694C39.8563 27.8233 31.8921 29.9786 25.0356 29.9786C15.4248 29.9786 6.77167 26.427 0.222152 20.513C-0.291667 20.0493 0.165432 19.4137 0.78435 19.774C7.84935 23.8862 16.5859 26.3619 25.6111 26.3619Z" fill="#FF9900"/>
<path d="M46.8712 27.7465C46.4174 28.1252 45.987 27.9234 46.1872 27.4229V27.4212C46.8512 25.7663 48.3359 22.0595 47.6319 21.1586C46.9314 20.2618 43.0096 20.7308 41.2314 20.9435L41.2175 20.9451C40.6804 21.0085 40.5969 20.5397 41.0807 20.2011C44.2254 17.994 49.3769 18.6313 49.9758 19.3703C50.5797 20.116 49.8173 25.2809 46.8712 27.7465Z" fill="#FF9900"/>
</svg>
