<svg width="277" height="76" viewBox="0 0 277 76" fill="none" xmlns="http://www.w3.org/2000/svg">
<path d="M82.3943 58.0239V34.6239H73.4343V30.0239H96.5143V34.6239H87.5943V58.0239H82.3943ZM105.125 58.4639C99.2052 58.4639 95.0052 54.0639 95.0052 47.8639C95.0052 41.5039 99.2452 37.2239 104.925 37.2239C110.685 37.2239 114.845 41.2639 114.845 47.4239V49.2639H99.9252C100.205 52.4239 102.045 54.6239 105.125 54.6239C107.485 54.6239 108.805 53.5439 109.605 51.5839L114.205 52.3039C113.085 56.0639 110.205 58.4639 105.125 58.4639ZM104.925 41.0639C102.325 41.0639 100.445 42.9039 100.005 45.8239H109.845C109.485 42.8239 107.685 41.0639 104.925 41.0639ZM118.383 58.0239V37.6639H123.023V38.5039C123.023 39.6239 122.983 40.5039 122.663 42.1039L123.143 42.2239C123.903 39.5439 125.303 37.6639 128.583 37.6639H130.063V42.5839H128.023C125.023 42.5839 123.383 44.3839 123.383 47.7439V58.0239H118.383ZM132.715 58.0239V37.6639H137.355V38.5039C137.355 39.6239 137.315 40.5039 136.995 42.1039L137.475 42.2239C138.235 39.5439 139.635 37.6639 142.915 37.6639H144.395V42.5839H142.355C139.355 42.5839 137.715 44.3839 137.715 47.7439V58.0239H132.715ZM151.861 58.3439C147.781 58.3439 145.141 56.1039 145.141 52.5839C145.141 48.3839 148.141 47.0239 151.701 46.1839L157.821 44.7439V44.3039C157.821 42.1839 156.461 40.8639 154.301 40.8639C152.101 40.8639 150.821 42.0639 150.421 43.9839L146.021 43.4639C146.701 39.6639 149.901 37.2239 154.501 37.2239C159.501 37.2239 162.821 40.3839 162.821 45.0239V53.3839C162.821 53.9039 162.941 54.1039 163.341 54.1039H164.421V58.0239H161.421C159.501 58.0239 158.621 57.4239 158.621 55.7839C158.621 55.3039 158.701 54.7039 158.901 53.9839L158.461 53.8239C157.061 56.9439 154.941 58.3439 151.861 58.3439ZM150.141 52.1039C150.141 53.7039 151.301 54.7039 153.141 54.7039C155.901 54.7039 157.821 52.7039 157.821 49.5439V47.9839L153.301 49.0639C151.101 49.5839 150.141 50.3439 150.141 52.1039ZM169.435 58.0239V41.6639H165.755V37.6639H169.435V34.5039C169.435 30.8239 171.155 29.2239 175.155 29.2239H179.675V33.1839H176.035C174.835 33.1839 174.355 33.7439 174.355 35.0639V37.6639H179.115V41.6639H174.435V58.0239H169.435ZM190.81 58.4639C184.81 58.4639 180.49 54.0639 180.49 47.8639C180.49 41.6639 184.77 37.2239 190.81 37.2239C196.81 37.2239 201.17 41.6639 201.17 47.8639C201.17 54.0239 196.81 58.4639 190.81 58.4639ZM190.81 54.4239C194.05 54.4239 196.17 51.7839 196.17 47.8639C196.17 43.9439 194.05 41.3039 190.81 41.3039C187.61 41.3039 185.45 43.9439 185.45 47.8639C185.45 51.7839 187.61 54.4239 190.81 54.4239ZM204.649 58.0239V37.6639H209.289V38.5039C209.289 39.6239 209.249 40.5039 208.929 42.1039L209.409 42.2239C210.169 39.5439 211.569 37.6639 214.849 37.6639H216.329V42.5839H214.289C211.289 42.5839 209.649 44.3839 209.649 47.7439V58.0239H204.649ZM218.98 58.0239V37.6639H223.86V38.5439C223.86 39.6239 223.78 40.3439 223.5 41.7839L223.98 41.9039C225.02 38.7439 227.06 37.2239 230.26 37.2239C233.5 37.2239 235.62 38.7039 236.38 41.8239H236.82C237.9 38.7439 239.94 37.2239 242.98 37.2239C247.18 37.2239 249.42 39.9439 249.42 44.6239V58.0239H244.7V44.7839C244.7 42.4639 243.54 41.1839 241.46 41.1839C238.74 41.1839 236.82 43.4639 236.82 46.8239V58.0239H231.82V44.7839C231.82 42.4639 230.7 41.1839 228.62 41.1839C225.94 41.1839 223.98 43.4639 223.98 46.8239V58.0239H218.98Z" fill="white"/>
<path fill-rule="evenodd" clip-rule="evenodd" d="M22.8667 24.5679L38.4022 33.5619V51.5594L22.8667 42.5607V24.5679Z" fill="#A067DA"/>
<path fill-rule="evenodd" clip-rule="evenodd" d="M40.1035 33.5619V51.5594L55.6343 42.5607V24.5679L40.1035 33.5619Z" fill="#A067DA"/>
<path fill-rule="evenodd" clip-rule="evenodd" d="M5.63428 14.5239V32.5167L21.165 41.5155V23.5227L5.63428 14.5239Z" fill="#A067DA"/>
<path fill-rule="evenodd" clip-rule="evenodd" d="M22.8667 62.5255L38.3974 71.5243V53.6497V53.5315L22.8667 44.5327V62.5255Z" fill="#A067DA"/>
<path d="M73.7223 20.0239V8.82393H75.7703V13.4319H80.7623V8.82393H82.8103V20.0239H80.7623V15.2879H75.7703V20.0239H73.7223ZM86.9243 20.1519C85.2923 20.1519 84.2363 19.2559 84.2363 17.8479C84.2363 16.1679 85.4363 15.6239 86.8603 15.2879L89.3083 14.7119V14.5359C89.3083 13.6879 88.7643 13.1599 87.9003 13.1599C87.0203 13.1599 86.5083 13.6399 86.3483 14.4079L84.5883 14.1999C84.8603 12.6799 86.1403 11.7039 87.9803 11.7039C89.9803 11.7039 91.3083 12.9679 91.3083 14.8239V18.1679C91.3083 18.3759 91.3563 18.4559 91.5163 18.4559H91.9483V20.0239H90.7483C89.9803 20.0239 89.6283 19.7839 89.6283 19.1279C89.6283 18.9359 89.6603 18.6959 89.7403 18.4079L89.5643 18.3439C89.0043 19.5919 88.1563 20.1519 86.9243 20.1519ZM86.2363 17.6559C86.2363 18.2959 86.7003 18.6959 87.4363 18.6959C88.5403 18.6959 89.3083 17.8959 89.3083 16.6319V16.0079L87.5003 16.4399C86.6203 16.6479 86.2363 16.9519 86.2363 17.6559ZM96.542 20.1999C94.59 20.1999 93.166 19.4159 92.814 17.8159L94.686 17.4319C94.894 18.3279 95.614 18.7759 96.542 18.7759C97.486 18.7759 98.014 18.3759 98.014 17.7519C98.014 17.0959 97.39 16.9679 96.206 16.7439C94.782 16.5199 92.894 16.2639 92.894 14.2639C92.894 12.7439 94.19 11.7039 96.27 11.7039C98.126 11.7039 99.566 12.4879 99.902 14.0559L98.014 14.3599C97.822 13.5599 97.15 13.1279 96.27 13.1279C95.31 13.1279 94.83 13.5439 94.83 14.0879C94.83 14.7439 95.47 14.8879 96.638 15.0959C98.078 15.3199 99.95 15.5919 99.95 17.5919C99.95 19.1599 98.67 20.1999 96.542 20.1999ZM103.307 15.5759V20.0239H101.307V8.50393H103.307V12.1199C103.307 12.5359 103.227 12.9359 103.115 13.5279L103.307 13.5759C103.803 12.3919 104.571 11.7039 105.963 11.7039C107.739 11.7039 108.683 12.8239 108.683 14.7279V20.0239H106.683V14.7919C106.683 13.8319 106.203 13.2879 105.243 13.2879C104.171 13.2879 103.307 14.1039 103.307 15.5759ZM111.918 10.9359C111.262 10.9359 110.702 10.3919 110.702 9.68793C110.702 9.01593 111.262 8.45592 111.918 8.45592C112.606 8.45592 113.15 9.01593 113.15 9.68793C113.15 10.3919 112.606 10.9359 111.918 10.9359ZM112.99 11.8799V20.0239H110.99V13.4799H109.822V11.8799H112.99ZM120.03 20.2159C116.894 20.2159 114.718 17.7839 114.718 14.4239C114.718 11.0639 116.878 8.63193 119.998 8.63193C122.622 8.63193 124.446 10.1839 124.926 12.3119L122.894 12.7919C122.51 11.2879 121.534 10.4239 119.998 10.4239C118.078 10.4239 116.846 12.0879 116.846 14.4239C116.846 16.7599 118.11 18.4239 120.062 18.4239C121.63 18.4239 122.574 17.5439 122.974 15.9439L124.91 16.1679C124.43 18.6639 122.606 20.2159 120.03 20.2159ZM130.014 20.1999C127.614 20.1999 125.886 18.4399 125.886 15.9599C125.886 13.4799 127.598 11.7039 130.014 11.7039C132.414 11.7039 134.158 13.4799 134.158 15.9599C134.158 18.4239 132.414 20.1999 130.014 20.1999ZM130.014 18.5839C131.31 18.5839 132.158 17.5279 132.158 15.9599C132.158 14.3919 131.31 13.3359 130.014 13.3359C128.734 13.3359 127.87 14.3919 127.87 15.9599C127.87 17.5279 128.734 18.5839 130.014 18.5839ZM135.55 20.0239V11.8799H137.406V12.2159C137.406 12.6639 137.39 13.0159 137.262 13.6559L137.454 13.7039C137.758 12.6319 138.318 11.8799 139.63 11.8799H140.222V13.8479H139.406C138.206 13.8479 137.55 14.5679 137.55 15.9119V20.0239H135.55ZM141.282 23.3039V11.8799H143.25V12.2799C143.25 12.6479 143.218 12.9359 143.106 13.5919L143.298 13.6399C143.794 12.3279 144.738 11.7039 145.938 11.7039C147.938 11.7039 149.506 13.3359 149.506 15.9439C149.506 18.5679 147.938 20.1999 145.938 20.1999C144.738 20.1999 143.842 19.5759 143.33 18.2639L143.154 18.3279C143.25 18.9679 143.282 19.2719 143.282 19.6239V23.3039H141.282ZM145.394 18.5839C146.626 18.5839 147.522 17.5759 147.522 15.9599C147.522 14.3279 146.626 13.3359 145.394 13.3359C144.146 13.3359 143.266 14.3279 143.266 15.9599C143.266 17.5759 144.146 18.5839 145.394 18.5839Z" fill="white"/>
</svg>
