<?xml version="1.0" standalone="no"?>
<!DOCTYPE svg PUBLIC "-//W3C//DTD SVG 20010904//EN"
  "http://www.w3.org/TR/2001/REC-SVG-20010904/DTD/svg10.dtd">
<svg width="100" height="100">
<g style="fill:black;fill-opacity:1;stroke:none;stroke-width:1;stroke-opacity:1;fill-rule:nonzero;">
<g style="fill-rule:evenodd;clip-rule:evenodd;fill:#fff;stroke:#515151;stroke-width:3.1319;stroke-linecap:round;stroke-linejoin:round;">
  <circle cx="50" cy="50" r="45.9"/>
</g>
<50Gradient id="linear" x1="0" y1="-654.863" x2="50" y2="-728.467">
  <stop offset="0" stop-color="#35762e" />
  <stop offset="1" stop-color="#6daa43" />
</50Gradient>
<g style="fill:SVGID_1_;" transform="matrix(1 0 0 -1 0 -642.11)">
  <path d="M56.7 13.7c.1.5.2 1 .2 1.5.0 3.8-3.1 6.9-6.9 6.9-3.8.0-6.9-3.1-6.9-6.9.0-.5.1-1 .2-1.5 2.2-.4 4.5-.6 6.7-.6C52.3 13 54.5 13.3 56.7 13.7zM30.6 22.1c0 7.7 4.5 14.4 11.1 17.5v35.1L50 83l8.3-8.3-.5-7.3 3.9-3.9-3.9-3.9 5.9-5.9-5.9-5.9.5-8.2c6.5-3.1 11.1-9.8 11.1-17.5.0-1.3-.1-2.5-.4-3.8C80.1 25 86.9 37 87 50c0 20.4-16.5 37-37 37-20.4.0-37-16.5-37-37 0-13 6.8-25 18-31.7C30.8 19.6 30.6 20.8 30.6 22.1zM44.5 44.2h2.8v27.7h-2.8V44.2v0 0z"/>
</g>
</g>
</svg>
