<svg width="521" height="520" xmlns="http://www.w3.org/2000/svg">
    <g transform="translate(.086)" fill-rule="nonzero" fill="none">
        <circle fill="#0F89F4" cx="260" cy="260" r="260"/>
        <path d="M347.61 385.452c-6.1 3.451-11.88 7.465-18.142 10.595-48.567 24.615-106.503 21.871-152.526-7.224-1.606-.963-2.328-.722-3.533.562a32.996 32.996 0 0 1-35.883 9.392 34.437 34.437 0 0 1-12.203-58.517c1.686-1.445 2.007-2.328.803-4.415-34.854-59.571-25.728-135.069 22.317-184.62a151.247 151.247 0 0 1 92.4-46.076c66.503-8.137 130.67 27.526 158.868 88.297 0 .803.802 1.525 1.204 2.248-.039.454-.039.91 0 1.364a147.525 147.525 0 0 1 12.523 49.848A154.352 154.352 0 0 1 361.9 373.411c-4.656 4.495-9.713 7.947-14.29 12.04zm-45.677-198.508a67.84 67.84 0 0 0-25.93 6.181 174.919 174.919 0 0 0-74.256 65.58 89.817 89.817 0 0 0-16.055 42.142 17.98 17.98 0 0 0 5.378 16.054c6.583 6.342 12.925 12.924 19.427 19.426a7.386 7.386 0 0 0 13.005-1.606l17.18-29.057a10.354 10.354 0 0 0-1.847-13.887c-2.328-2.328-4.575-4.736-7.064-6.823a4.976 4.976 0 0 1-1.445-5.94 40.936 40.936 0 0 1 5.057-10.034 124.825 124.825 0 0 1 27.857-29.058 52.342 52.342 0 0 1 14.048-8.026 5.058 5.058 0 0 1 6.181 1.444c2.088 2.408 4.416 4.576 6.744 6.743a9.152 9.152 0 0 0 10.917 1.605l31.63-16.696a7.385 7.385 0 0 0 1.926-12.923c-6.422-6.502-13.005-12.843-19.347-19.425a16.779 16.779 0 0 0-13.406-5.7z" fill="#FEFEFE"/>
    </g>
</svg>
