<svg width="521" height="521" xmlns="http://www.w3.org/2000/svg">
    <g transform="translate(.116 .36)" fill-rule="nonzero" fill="none">
        <circle fill="#6358C7" cx="260" cy="260" r="260"/>
        <path d="M202.222 389.692h-97.375a10.246 10.246 0 0 1-11.555-12.711 122.412 122.412 0 0 1 39.597-81.197 99.609 99.609 0 0 1 78.038-27.117 102.69 102.69 0 0 1 69.334 35.59 125.031 125.031 0 0 1 30.815 66.638c.394 2.552.65 5.124.77 7.704a9.938 9.938 0 0 1-10.554 10.862h-99.07v.23zM203.147 134.622c23.656.063 44.944 14.373 53.932 36.256 8.988 21.882 3.905 47.024-12.878 63.696-16.783 16.673-41.958 21.59-63.78 12.458-21.823-9.132-35.993-30.514-35.9-54.17a58.165 58.165 0 0 1 58.626-58.24z" fill="#FEFEFE"/>
        <path d="M393.736 289.081a99.378 99.378 0 0 1 32.048 55.852 79.271 79.271 0 0 1 1.386 8.474 10.246 10.246 0 0 1-10.63 10.632l-42.371-.232h-40.984a10.169 10.169 0 0 1-11.016-9.09 126.033 126.033 0 0 0-26.079-55.147l-2.348-2.785a9.938 9.938 0 0 1 1.437-14.794l.951-.613a77.576 77.576 0 0 1 29.351-11.864 79.733 79.733 0 0 1 68.255 19.567zm-52.978-127.57c25.457.098 46.043 20.762 46.045 46.22a46.226 46.226 0 0 1-46.762 46.222c-25.455-.297-45.879-21.121-45.681-46.578.197-25.456 20.941-45.961 46.398-45.864z" fill="#FFF" opacity=".5"/>
    </g>
</svg>
