<?xml version="1.0" encoding="UTF-8"?>
<svg width="96px" height="96px" viewBox="0 0 96 96" version="1.1" xmlns="http://www.w3.org/2000/svg" xmlns:xlink="http://www.w3.org/1999/xlink">
    <title>Icon/vnc/task-new-simplified</title>
    <g id="Icon/vnc/task-new-simplified" stroke="none" stroke-width="1" fill="none" fill-rule="evenodd">
        <circle id="Oval" fill="#1BA3B8" fill-rule="nonzero" cx="48" cy="48" r="48"></circle>
        <g id="Group" transform="translate(24.000000, 16.500000)">
            <path d="M38,6.5 C43.5228475,6.5 48,10.9771525 48,16.5 L48,50.5 C48,56.0228475 43.5228475,60.5 38,60.5 L10,60.5 C4.4771525,60.5 0,56.0228475 0,50.5 L0,16.5 C0,10.9771525 4.4771525,6.5 10,6.5 L38,6.5 Z M35.2530483,26.1109127 C34.5131076,25.3709719 33.3376234,25.3320277 32.551836,25.99408 L32.4246212,26.1109127 L22.5244192,36.0097005 L17.5753788,31.0606602 C16.7943302,30.2796116 15.5280003,30.2796116 14.7469517,31.0606602 C14.0070109,31.8006009 13.9680667,32.9760851 14.6301189,33.7618725 L14.7469517,33.8890873 L21.8180195,40.9601551 C22.1785034,41.3206391 22.7457345,41.3483686 23.1380257,41.0433437 L23.232233,40.9601551 L35.2530483,28.9393398 C36.0340969,28.1582912 36.0340969,26.8919613 35.2530483,26.1109127 Z" id="Shape" fill="#FFFFFF"></path>
            <path d="M28,0 C30.1421954,0 31.8910789,1.68396847 31.9951047,3.80035966 L32,4 L16,4 C16,1.790861 17.790861,0 20,0 L28,0 Z" id="Path" fill="#FEFEFE" fill-rule="nonzero" opacity="0.5"></path>
        </g>
    </g>
</svg>