<svg version="1.1" id="Layer_1" xmlns="http://www.w3.org/2000/svg" xmlns:xlink="http://www.w3.org/1999/xlink" x="0px" y="0px"
	 width="100%" viewBox="0 0 256 256" enable-background="new 0 0 256 256" xml:space="preserve">
<path fill="#000000" opacity="1.000000" stroke="none" 
	d="
M257.000000,92.000000 
	C257.000000,147.333328 257.000000,202.166672 257.000000,257.000000 
	C171.666672,257.000000 86.333336,257.000000 1.000000,257.000000 
	C1.000000,171.666672 1.000000,86.333336 1.000000,1.000000 
	C86.333336,1.000000 171.666672,1.000000 257.000000,1.000000 
	C257.000000,31.166666 257.000000,61.333332 257.000000,92.000000 
M181.974869,21.471628 
	C161.139267,12.006136 139.631241,7.037763 116.484421,9.849686 
	C102.944267,11.494571 90.008446,14.837567 77.866333,20.719797 
	C55.145435,31.726908 37.244492,48.000935 24.866575,70.321533 
	C12.659121,92.334732 7.156630,115.464058 9.865655,140.694824 
	C11.698472,157.764954 16.605408,173.619904 25.093060,188.441635 
	C37.014412,209.259506 53.691299,225.276520 75.104942,235.907669 
	C98.301460,247.423950 122.694351,251.682053 148.650482,247.151840 
	C173.151215,242.875656 194.212753,232.196320 212.020264,215.282333 
	C224.396896,203.526733 233.867691,189.532196 240.209091,173.473297 
	C248.897339,151.471329 251.541794,128.848892 246.740875,105.739090 
	C243.195923,88.675003 236.437119,72.745804 225.929550,58.607811 
	C214.333801,43.005642 199.980911,30.675278 181.974869,21.471628 
z"/>
<path fill="#00C8FF" opacity="1.000000" stroke="none" 
	d="
M182.278625,21.705284 
	C199.980911,30.675278 214.333801,43.005642 225.929550,58.607811 
	C236.437119,72.745804 243.195923,88.675003 246.740875,105.739090 
	C251.541794,128.848892 248.897339,151.471329 240.209091,173.473297 
	C233.867691,189.532196 224.396896,203.526733 212.020264,215.282333 
	C194.212753,232.196320 173.151215,242.875656 148.650482,247.151840 
	C122.694351,251.682053 98.301460,247.423950 75.104942,235.907669 
	C53.691299,225.276520 37.014412,209.259506 25.093060,188.441635 
	C16.605408,173.619904 11.698472,157.764954 9.865655,140.694824 
	C7.156630,115.464058 12.659121,92.334732 24.866575,70.321533 
	C37.244492,48.000935 55.145435,31.726908 77.866333,20.719797 
	C90.008446,14.837567 102.944267,11.494571 116.484421,9.849686 
	C139.631241,7.037763 161.139267,12.006136 182.278625,21.705284 
M190.586716,30.931227 
	C177.440689,22.831432 163.406952,17.441433 148.059906,14.751952 
	C133.688782,12.233495 119.454720,12.254048 105.489395,15.405478 
	C72.728874,22.798252 47.179573,40.704971 29.647697,69.712685 
	C14.122105,95.400864 9.383752,123.120079 15.298409,152.227295 
	C21.001516,180.293442 35.819794,203.278290 58.489010,220.931473 
	C77.122627,235.442062 98.508423,243.474808 121.928734,244.726730 
	C132.949570,245.315857 144.428299,244.283783 155.175934,241.758179 
	C189.679550,233.650055 215.417938,213.414642 231.906677,182.023422 
	C242.639069,161.591125 246.749954,139.817780 244.159943,116.599579 
	C242.089386,98.037941 236.001114,81.158058 226.025299,65.636055 
	C217.021484,51.626469 205.015671,40.447697 190.586716,30.931227 
z"/>
<path fill="#0F0F23" opacity="1.000000" stroke="none" 
	d="
M190.952347,30.993778 
	C205.015671,40.447697 217.021484,51.626469 226.025299,65.636055 
	C236.001114,81.158058 242.089386,98.037941 244.159943,116.599579 
	C246.749954,139.817780 242.639069,161.591125 231.906677,182.023422 
	C215.417938,213.414642 189.679550,233.650055 155.175934,241.758179 
	C144.428299,244.283783 132.949570,245.315857 121.928734,244.726730 
	C98.508423,243.474808 77.122627,235.442062 58.489010,220.931473 
	C35.819794,203.278290 21.001516,180.293442 15.298409,152.227295 
	C9.383752,123.120079 14.122105,95.400864 29.647697,69.712685 
	C47.179573,40.704971 72.728874,22.798252 105.489395,15.405478 
	C119.454720,12.254048 133.688782,12.233495 148.059906,14.751952 
	C163.406952,17.441433 177.440689,22.831432 190.952347,30.993778 
M138.947037,91.022827 
	C146.777161,91.015030 154.607635,91.049789 162.437286,90.985260 
	C168.157791,90.938118 171.953613,87.142151 171.984253,81.409073 
	C172.038559,71.246765 172.026001,61.083870 171.989792,50.921406 
	C171.967773,44.742271 168.349594,41.023201 162.268127,41.013882 
	C140.110382,40.979927 117.952545,40.981705 95.794792,41.012653 
	C89.697693,41.021172 86.034866,44.729080 86.010941,50.858501 
	C85.971916,60.854343 85.980766,70.850502 86.007393,80.846428 
	C86.024681,87.337502 89.592522,90.945641 95.999504,90.995712 
	C104.659355,91.063393 113.319427,91.103516 121.993088,92.070435 
	C121.987656,100.333649 121.982224,108.596870 121.247826,117.001198 
	C120.059456,117.558464 118.882286,118.141197 117.681053,118.669189 
	C98.661095,127.029228 91.958466,151.253082 108.045242,166.558884 
	C109.296326,167.749222 110.433540,169.059235 111.984032,170.693436 
	C101.105637,171.522263 99.000687,173.833801 99.000175,184.087555 
	C98.999893,189.912384 98.934464,195.738220 99.021141,201.561768 
	C99.104195,207.141418 102.794121,210.939270 108.325256,210.971329 
	C122.137962,211.051407 135.951767,211.052170 149.764450,210.969681 
	C155.025574,210.938263 158.876450,207.160599 158.965210,201.971069 
	C159.090424,194.650574 159.087601,187.324829 158.965347,180.004211 
	C158.882126,175.022064 155.211823,171.393570 150.241623,171.000977 
	C149.050049,170.906845 147.861664,170.772247 146.671814,170.656281 
	C146.439392,170.241608 146.206970,169.826935 145.974564,169.412262 
	C147.438171,168.320221 149.057724,167.385239 150.340698,166.111298 
	C160.463409,156.059906 161.978104,141.196732 153.846802,129.721832 
	C149.789261,123.995850 144.201035,119.946281 137.956482,116.071175 
	C137.977875,107.765930 137.999268,99.460686 138.947037,91.022827 
M127.567108,220.965881 
	C126.354019,221.090515 125.140923,221.215134 123.618568,221.371536 
	C126.493317,224.587463 125.073586,229.696091 120.658386,232.280426 
	C120.658386,228.427063 120.658386,224.833221 120.658386,221.829727 
	C112.408295,221.829727 104.339539,221.829727 96.289818,221.829727 
	C96.957024,225.861969 97.623436,229.889465 98.289856,233.916946 
	C98.671104,234.075897 99.052361,234.234863 99.433609,234.393814 
	C100.497414,232.725555 101.561211,231.057297 102.611320,229.410522 
	C103.577980,231.027084 104.574333,232.693298 105.570679,234.359528 
	C105.991692,234.256561 106.412704,234.153610 106.833717,234.050659 
	C107.533638,230.138031 108.233559,226.225403 108.933479,222.312775 
	C109.387512,222.344070 109.841545,222.375351 110.295578,222.406631 
	C110.295578,226.203033 110.295578,229.999420 110.295578,233.523987 
	C115.910393,233.523987 121.413872,233.523987 127.009094,233.523987 
	C126.627617,232.381714 126.303879,231.412308 125.833878,230.004959 
	C127.899612,230.106491 129.459259,230.183136 131.201172,230.268738 
	C130.710403,231.654694 130.378326,232.592484 129.848465,234.088821 
	C131.940613,233.925827 133.430664,233.809753 135.144730,233.676208 
	C134.037827,231.182953 133.294067,229.168335 132.276123,227.303406 
	C131.087738,225.126190 129.659973,223.079636 127.567108,220.965881 
M157.273773,224.889679 
	C158.340027,223.888275 159.406296,222.886887 161.120880,221.276611 
	C156.148453,221.276611 152.424362,221.276611 149.307526,221.276611 
	C149.307526,225.565796 149.307526,229.538071 149.307526,234.263794 
	C151.165146,233.735992 153.360519,233.112213 155.971802,232.370270 
	C156.847107,232.741852 158.590347,233.481903 160.356598,234.231720 
	C158.947617,230.757874 157.855209,228.064529 157.273773,224.889679 
M138.881836,230.552216 
	C139.134323,228.310974 139.386826,226.069748 139.639328,223.828506 
	C141.905228,224.165558 144.171127,224.502609 146.822800,224.897049 
	C146.860153,224.309021 146.947021,222.941833 147.042587,221.437668 
	C142.585342,220.953766 137.818756,219.686249 136.283234,225.016220 
	C135.630936,227.280426 136.794357,231.103226 138.526123,232.768585 
	C140.937134,235.087128 144.472336,234.797653 147.316971,231.782104 
	C144.457733,231.518143 141.977875,231.289200 138.881836,230.552216 
z"/>
<path fill="#C82828" opacity="1.000000" stroke="none" 
	d="
M137.833252,117.001175 
	C144.201035,119.946281 149.789261,123.995850 153.846802,129.721832 
	C161.978104,141.196732 160.463409,156.059906 150.340698,166.111298 
	C149.057724,167.385239 147.438171,168.320221 145.974564,169.412262 
	C146.206970,169.826935 146.439392,170.241608 146.671814,170.656281 
	C147.861664,170.772247 149.050049,170.906845 150.241623,171.000977 
	C155.211823,171.393570 158.882126,175.022064 158.965347,180.004211 
	C159.087601,187.324829 159.090424,194.650574 158.965210,201.971069 
	C158.876450,207.160599 155.025574,210.938263 149.764450,210.969681 
	C135.951767,211.052170 122.137962,211.051407 108.325256,210.971329 
	C102.794121,210.939270 99.104195,207.141418 99.021141,201.561768 
	C98.934464,195.738220 98.999893,189.912384 99.000175,184.087555 
	C99.000687,173.833801 101.105637,171.522263 111.984032,170.693436 
	C110.433540,169.059235 109.296326,167.749222 108.045242,166.558884 
	C91.958466,151.253082 98.661095,127.029228 117.681053,118.669189 
	C118.882286,118.141197 120.059456,117.558464 121.977509,116.929199 
	C124.136620,116.525490 125.566040,116.193787 127.423203,115.904938 
	C129.568802,115.919212 131.286682,115.890640 133.323822,116.032120 
	C135.039810,116.468506 136.436539,116.734840 137.833252,117.001175 
M119.384033,143.999771 
	C123.675812,144.579956 123.192772,142.040817 122.739166,139.274078 
	C119.378952,139.274078 116.325691,139.274078 113.016151,139.274078 
	C113.090363,140.945618 113.151840,142.330246 113.225967,143.999985 
	C115.210884,143.999985 116.835869,143.999985 119.384033,143.999771 
M144.868958,143.342682 
	C144.868958,141.955170 144.868958,140.567657 144.868958,139.005554 
	C141.972717,139.005554 139.674652,138.993057 137.376877,139.013702 
	C136.743835,139.019394 136.111679,139.124039 135.382065,139.192368 
	C135.382065,140.867874 135.382065,142.352798 135.382065,143.905579 
	C138.549286,143.905579 141.343109,143.905579 144.868958,143.342682 
z"/>
<path fill="#B4B4BE" opacity="1.000000" stroke="none" 
	d="
M121.979401,91.155472 
	C113.319427,91.103516 104.659355,91.063393 95.999504,90.995712 
	C89.592522,90.945641 86.024681,87.337502 86.007393,80.846428 
	C85.980766,70.850502 85.971916,60.854343 86.010941,50.858501 
	C86.034866,44.729080 89.697693,41.021172 95.794792,41.012653 
	C117.952545,40.981705 140.110382,40.979927 162.268127,41.013882 
	C168.349594,41.023201 171.967773,44.742271 171.989792,50.921406 
	C172.026001,61.083870 172.038559,71.246765 171.984253,81.409073 
	C171.953613,87.142151 168.157791,90.938118 162.437286,90.985260 
	C154.607635,91.049789 146.777161,91.015030 138.066513,91.035843 
	C135.779877,91.086609 134.373749,91.124359 132.546600,91.103020 
	C130.427856,91.083321 128.730164,91.122711 126.612556,91.107910 
	C124.788231,91.087639 123.383820,91.121559 121.979401,91.155472 
M156.406586,87.000000 
	C157.404846,86.999924 158.403137,87.004402 159.401367,86.999039 
	C166.846420,86.959053 167.983398,85.817764 167.996231,78.268394 
	C168.010941,69.616791 168.042068,60.964825 167.981827,52.313602 
	C167.942551,46.671894 166.425934,45.039112 160.977997,45.025425 
	C139.681808,44.971928 118.385330,44.973385 97.089111,45.023964 
	C91.584106,45.037037 90.059265,46.636414 90.019623,52.246502 
	C89.956139,61.230446 89.971191,70.215294 90.011032,79.199501 
	C90.039482,85.614990 91.442787,86.982224 98.032394,86.990700 
	C117.165787,87.015320 136.299240,86.999786 156.406586,87.000000 
z"/>
<path fill="#01EDBC" opacity="1.000000" stroke="none" 
	d="
M127.951591,220.971130 
	C129.659973,223.079636 131.087738,225.126190 132.276123,227.303406 
	C133.294067,229.168335 134.037827,231.182953 135.144730,233.676208 
	C133.430664,233.809753 131.940613,233.925827 129.848465,234.088821 
	C130.378326,232.592484 130.710403,231.654694 131.201172,230.268738 
	C129.459259,230.183136 127.899612,230.106491 125.833878,230.004959 
	C126.303879,231.412308 126.627617,232.381714 127.009094,233.523987 
	C121.413872,233.523987 115.910393,233.523987 110.295578,233.523987 
	C110.295578,229.999420 110.295578,226.203033 110.295578,222.406631 
	C109.841545,222.375351 109.387512,222.344070 108.933479,222.312775 
	C108.233559,226.225403 107.533638,230.138031 106.833717,234.050659 
	C106.412704,234.153610 105.991692,234.256561 105.570679,234.359528 
	C104.574333,232.693298 103.577980,231.027084 102.611320,229.410522 
	C101.561211,231.057297 100.497414,232.725555 99.433609,234.393814 
	C99.052361,234.234863 98.671104,234.075897 98.289856,233.916946 
	C97.623436,229.889465 96.957024,225.861969 96.289818,221.829727 
	C104.339539,221.829727 112.408295,221.829727 120.658386,221.829727 
	C120.658386,224.833221 120.658386,228.427063 120.658386,232.280426 
	C125.073586,229.696091 126.493317,224.587463 123.618568,221.371536 
	C125.140923,221.215134 126.354019,221.090515 127.951591,220.971130 
M113.323418,229.728271 
	C114.287827,230.695541 115.252228,231.662796 116.216644,232.630066 
	C116.919670,231.410400 117.622688,230.190720 119.076241,227.668945 
	C116.165283,228.235153 114.820503,228.496735 113.323418,229.728271 
M113.493317,225.247375 
	C114.916138,225.434708 116.338966,225.622040 118.548935,225.913025 
	C116.803497,222.070190 115.499504,220.735184 113.493317,225.247375 
M103.508003,223.428848 
	C103.881828,224.555466 104.255653,225.682068 104.629478,226.808685 
	C105.124733,226.592728 105.619987,226.376770 106.115242,226.160812 
	C105.496414,225.118149 104.877586,224.075500 103.508003,223.428848 
M101.365974,224.315979 
	C100.866768,223.952103 100.367561,223.588242 99.868362,223.224365 
	C99.736313,223.901337 99.604256,224.578323 99.472198,225.255295 
	C99.999489,225.206207 100.526779,225.157104 101.365974,224.315979 
z"/>
<path fill="#A0783C" opacity="1.000000" stroke="none" 
	d="
M132.967636,91.162109 
	C134.373749,91.124359 135.779877,91.086609 137.603333,91.102150 
	C137.999268,99.460686 137.977875,107.765930 137.894867,116.536171 
	C136.436539,116.734840 135.039810,116.468506 133.322495,115.576157 
	C132.990479,107.020805 132.979065,99.091461 132.967636,91.162109 
z"/>
<path fill="#A0783C" opacity="1.000000" stroke="none" 
	d="
M121.986244,91.612953 
	C123.383820,91.121559 124.788231,91.087639 126.604401,91.565201 
	C127.009254,100.005142 127.002357,107.933609 126.995461,115.862076 
	C125.566040,116.193787 124.136620,116.525490 122.341995,116.858643 
	C121.982224,108.596870 121.987656,100.333649 121.986244,91.612953 
z"/>
<path fill="#01EAB9" opacity="1.000000" stroke="none" 
	d="
M157.018280,225.130432 
	C157.855209,228.064529 158.947617,230.757874 160.356598,234.231720 
	C158.590347,233.481903 156.847107,232.741852 155.971802,232.370270 
	C153.360519,233.112213 151.165146,233.735992 149.307526,234.263794 
	C149.307526,229.538071 149.307526,225.565796 149.307526,221.276611 
	C152.424362,221.276611 156.148453,221.276611 161.120880,221.276611 
	C159.406296,222.886887 158.340027,223.888275 157.018280,225.130432 
M153.436523,228.969254 
	C151.071808,232.266830 153.783493,231.943649 156.507431,232.797089 
	C155.540314,231.051208 155.022049,230.115616 153.436523,228.969254 
z"/>
<path fill="#01EAB9" opacity="1.000000" stroke="none" 
	d="
M139.189926,230.806244 
	C141.977875,231.289200 144.457733,231.518143 147.316971,231.782104 
	C144.472336,234.797653 140.937134,235.087128 138.526123,232.768585 
	C136.794357,231.103226 135.630936,227.280426 136.283234,225.016220 
	C137.818756,219.686249 142.585342,220.953766 147.042587,221.437668 
	C146.947021,222.941833 146.860153,224.309021 146.822800,224.897049 
	C144.171127,224.502609 141.905228,224.165558 139.639328,223.828506 
	C139.386826,226.069748 139.134323,228.310974 139.189926,230.806244 
z"/>
<path fill="#825F2D" opacity="1.000000" stroke="none" 
	d="
M127.423203,115.904930 
	C127.002357,107.933609 127.009254,100.005142 127.024307,91.619385 
	C128.730164,91.122711 130.427856,91.083321 132.546600,91.103027 
	C132.979065,99.091461 132.990479,107.020805 133.003220,115.406113 
	C131.286682,115.890640 129.568802,115.919212 127.423203,115.904930 
z"/>
<path fill="#00FF00" opacity="1.000000" stroke="none" 
	d="
M118.922440,143.999878 
	C116.835869,143.999985 115.210884,143.999985 113.225967,143.999985 
	C113.151840,142.330246 113.090363,140.945618 113.016151,139.274078 
	C116.325691,139.274078 119.378952,139.274078 122.739166,139.274078 
	C123.192772,142.040817 123.675812,144.579956 118.922440,143.999878 
z"/>
<path fill="#00FF00" opacity="1.000000" stroke="none" 
	d="
M144.502945,143.624130 
	C141.343109,143.905579 138.549286,143.905579 135.382065,143.905579 
	C135.382065,142.352798 135.382065,140.867874 135.382065,139.192368 
	C136.111679,139.124039 136.743835,139.019394 137.376877,139.013702 
	C139.674652,138.993057 141.972717,139.005554 144.868958,139.005554 
	C144.868958,140.567657 144.868958,141.955170 144.502945,143.624130 
z"/>
<path fill="#8C8C96" opacity="1.000000" stroke="none" 
	d="
M155.919617,87.000000 
	C136.299240,86.999786 117.165787,87.015320 98.032394,86.990700 
	C91.442787,86.982224 90.039482,85.614990 90.011032,79.199501 
	C89.971191,70.215294 89.956139,61.230446 90.019623,52.246502 
	C90.059265,46.636414 91.584106,45.037037 97.089111,45.023964 
	C118.385330,44.973385 139.681808,44.971928 160.977997,45.025425 
	C166.425934,45.039112 167.942551,46.671894 167.981827,52.313602 
	C168.042068,60.964825 168.010941,69.616791 167.996231,78.268394 
	C167.983398,85.817764 166.846420,86.959053 159.401367,86.999039 
	C158.403137,87.004402 157.404846,86.999924 155.919617,87.000000 
z"/>
<path fill="#0F0F23" opacity="1.000000" stroke="none" 
	d="
M113.399574,229.243286 
	C114.820503,228.496735 116.165283,228.235153 119.076241,227.668945 
	C117.622688,230.190720 116.919670,231.410400 116.216644,232.630066 
	C115.252228,231.662796 114.287827,230.695541 113.399574,229.243286 
z"/>
<path fill="#0F0F23" opacity="1.000000" stroke="none" 
	d="
M113.443649,224.766602 
	C115.499504,220.735184 116.803497,222.070190 118.548935,225.913025 
	C116.338966,225.622040 114.916138,225.434708 113.443649,224.766602 
z"/>
<path fill="#0F0F23" opacity="1.000000" stroke="none" 
	d="
M103.883385,223.230835 
	C104.877586,224.075500 105.496414,225.118149 106.115242,226.160812 
	C105.619987,226.376770 105.124733,226.592728 104.629478,226.808685 
	C104.255653,225.682068 103.881828,224.555466 103.883385,223.230835 
z"/>
<path fill="#0F0F23" opacity="1.000000" stroke="none" 
	d="
M101.210022,224.712006 
	C100.526779,225.157104 99.999489,225.206207 99.472198,225.255295 
	C99.604256,224.578323 99.736313,223.901337 99.868362,223.224365 
	C100.367561,223.588242 100.866768,223.952103 101.210022,224.712006 
z"/>
<path fill="#0F0F23" opacity="1.000000" stroke="none" 
	d="
M153.970154,229.074646 
	C155.022049,230.115616 155.540314,231.051208 156.507431,232.797089 
	C153.783493,231.943649 151.071808,232.266830 153.970154,229.074646 
z"/>
</svg>