<?xml version="1.0" encoding="utf-8"?>
<!-- Generator: Adobe Illustrator 19.2.1, SVG Export Plug-In . SVG Version: 6.00 Build 0)  -->
<svg version="1.1" id="layer" xmlns="http://www.w3.org/2000/svg" xmlns:xlink="http://www.w3.org/1999/xlink" x="0px" y="0px"
	 viewBox="0 0 652 652" style="enable-background:new 0 0 652 652;" xml:space="preserve">
<style type="text/css">
	.st0{fill:#FF1515;}
</style>
<path class="st0" d="M603.2,243v35.4h23.6v-59h-59V243H603.2z M567.8,254.7h23.5v23.6h-23.5V254.7z M26.8,243h35.4v35.4H26.8V243z
	 M314.6,351.1c0-5.6-0.2-19.9-8.3-29.7c-11.9-13.9-33-15.5-43-15.5c-10,0-25.6,1.9-36.6,9.7s-13.3,22-13.7,28.5h34.8
	c-0.3-3.8,0.6-7.5,2.6-10.8c3.1-4.3,8.1-6.8,13.4-6.7c3.4,0,12.6,1.3,15.8,10.1c1.4,4.3,1.6,8.1,1.6,16c-11.7,0-32.9,0-47.8,6.7
	c-22.3,10.3-25.6,27.9-25.6,37.6c-0.1,9.9,3.7,19.4,10.5,26.5c4.8,4.5,12.6,9.5,30.1,9.5c6.6,0,22.7,0,36.1-19.4
	c-0.1,5.5,0.3,11,1.2,16.5h32.1c-2.1-10.1-3-20.3-2.9-30.6L314.6,351.1z M274.5,403.2c-3.8,4.4-9.3,6.9-15.1,7
	c-11.7,0-17.3-9-17.3-17.2c0-14.4,16.2-21.6,38.9-19.7C281.1,386.2,280.7,395.5,274.5,403.2L274.5,403.2z M520.3,278.8l-35.1,9.6
	v20.9H462v23.4h23.2v67.1c0,10.1,0,32.6,35.6,32.6c9.3-0.1,18.5-1.4,27.5-3.8v-23.2c-4,0.5-7.9,0.7-11.9,0.7c-15.8,0-15.8-7-16-18
	v-55.4h28.6v-23.4h-28.6V278.8z M26.8,309.3h35.4v121H26.8V309.3z M171.6,309.3l-27.7,82l-27.2-82h-38l44.3,120.9h39.3l43.6-120.9
	H171.6z M446.1,328.9c-3.1-8.3-13.2-22.7-36.9-22.7c-26.3,0-35.8,15.5-39.2,21l-0.9-17.9h-34c0.7,8.3,0.7,21.2,0.7,21.7v99.2h35.6
	v-70.7c0-9.4,2.2-15.3,4.3-18.4c4.2-5.9,11.1-9.4,18.4-9.3c7.3-0.2,14,3.7,17.3,10.2c1.9,3.8,1.9,8.1,1.9,13.2v75h36.1v-65.3
	C449.3,342.4,448.6,336.3,446.1,328.9z M567.8,309.3h35.4v121h-35.4V309.3z"/>
</svg>
