<svg clip-rule="evenodd" fill-rule="evenodd" stroke-linejoin="round" stroke-miterlimit="2" viewBox="0 0 560 400" xmlns="http://www.w3.org/2000/svg"><path d="m276.9 47.8h-19.8v16.5h-12.7v-62h33c4.2 0 8.5.5 12.5 1.7 3.3 1 6.1 2.4 8.7 4.5 2.4 1.9 4 4.2 5.2 7 1.2 3 1.7 6.1 1.7 9.4 0 3.1-.5 6.4-1.7 9.2s-2.8 5.4-5.2 7.3c-2.6 2.1-5.4 3.8-8.7 4.7-3.399 1.02-7.014 1.678-10.6 1.731v.369h-2.4zm14.9-22.8c.2-3.3-1.2-6.4-3.6-8.5-3-2.4-6.8-3.3-10.8-3.1h-20.5v23.9h20.5c2.2 0 4.3-.2 6.4-.9 1.7-.5 3.1-1.4 4.5-2.6 1.2-1 2.1-2.4 2.6-3.8.7-1.7.9-3.3.9-5zm-170-22.6h13.5l30.1 62.4h-13.2l-5.2-10.6h-36.3l-4.7 10.4h-13.4zm6.9 13.2-13.2 28.3h26.6zm99.9-7.1c2.4 1.9 4 4.2 5.2 7 1.2 3 1.7 6.1 1.7 9.4 0 3.1-.5 6.4-1.7 9.2s-2.8 5.4-5.2 7.3c-2.6 2.1-5.4 3.8-8.7 4.7-4 1.2-8.3 1.9-12.5 1.7h-20.3v16.5h-12.7l.2-62h32.8c4.2 0 8.5.5 12.5 1.7 3.3 1 6.1 2.4 8.7 4.5zm-6.3 16.7c.2-3.3-1.2-6.3-3.6-8.7-3-2.4-6.8-3.3-10.8-3.1h-20.5v23.9h20.5c2.2 0 4.3-.2 6.4-.9 1.7-.5 3.1-1.2 4.5-2.4 1.2-1 2.1-2.4 2.6-3.8.7-1.7.9-3.3.9-5zm152.9 4.3c1.9 1.4 3.3 3.3 4.6 5.3.9 2.3 1.4 4.7 1.4 7.3 0 3.3-.7 6.9-2.4 9.7-1.7 2.9-4.3 5.4-7.1 7.1-3.6 2.1-7.1 3.6-11.1 4.5-4.7.9-9.7 1.6-14.4 1.4-3.6 0-6.9-.2-10.4-.7-3.3-.5-6.4-1-9.7-1.9-3-.7-5.9-1.6-8.7-2.8-2.6-1.2-5.2-2.4-7.8-3.8l6.8-9.4c2.1 1.1 4.4 2.3 6.8 3.5 2.4.9 4.7 1.9 7.3 2.6 2.6.8 5.2 1.2 7.8 1.7 2.8.5 5.9.5 8.7.5 3.3 0 6.4-.2 9.7-.7 2.2-.5 4.5-.9 6.4-2.1 1.4-.7 2.8-1.7 3.5-3.1.7-1.2 1.2-2.6 1.2-4 0-2.1-.9-4.2-2.8-5.4-2.6-1.4-5.6-2.1-8.7-1.9-1.9 0-3.8 0-5.4.2l-5.9.7-5.7.7c-1.9.2-3.5.2-5.4.2-2.8 0-5.4-.5-8-1.2-2.3-.7-4.7-1.6-6.8-3.3-1.9-1.4-3.5-3.3-4.7-5.4-1.2-2.3-1.9-4.9-1.9-7.5 0-1.7.2-3.5.7-5.2.4-1.6 1.2-3.3 2.1-4.7 1.2-1.7 2.3-3.3 4-4.5 1.9-1.4 3.8-2.6 5.9-3.3 2.6-1.2 5.2-1.9 8-2.4 3.3-.5 6.9-.9 10.4-.7 2.8 0 5.7.3 8.5.5 2.9.2 5.7.7 8.3 1.4 2.6.5 5.2 1.2 7.8 1.9 2.3.7 4.7 1.9 6.8 2.8l-5.7 10.2-5.7-2.1c-2.2-.8-4.3-1.2-6.4-1.7s-4.4-1-6.8-1.2c-2.3-.3-4.7-.5-7.3-.5-2.8 0-5.7.2-8.5.7-1.9.5-3.8 1-5.4 1.9-1.1.7-2.1 1.4-2.8 2.6-.5.9-.7 1.9-.7 2.8 0 1.9.9 3.6 2.6 4.5 2.3 1.4 4.9 1.9 7.5 1.9 1.6 0 3-.2 4.7-.2l5.7-.7c1.9-.2 4-.5 6.1-.7s4-.2 6.1-.2c3.3 0 6.6.5 9.7 1.2 2.6.7 5 1.9 7.1 3.5zm73.1 4.7c-1.2 2.8-2.8 5.4-5.2 7.2-2.6 2.1-5.4 3.8-8.7 4.7-4 1.2-8.3 1.9-12.5 1.7h-20.3v16.5h-12.7l.2-62h32.8c4.2 0 8.5.5 12.5 1.7 3.3 1 6.1 2.4 8.7 4.5 2.4 1.9 4 4.3 5.2 7.1 1.1 3 1.6 6.1 1.6 9.4 0 3.1-.4 6.4-1.6 9.2zm-11.5-9c.2-3.3-1.2-6.3-3.6-8.7-3-2.4-6.8-3.3-10.8-3.1h-20.5v23.9h20.5c2.2 0 4.3-.2 6.4-.9 1.7-.5 3.1-1.2 4.5-2.4 1.2-1 2.1-2.4 2.6-3.8.7-1.7.9-3.3.9-5zm36.5-22.8h13.4l30.2 62.5h-13.2l-5-10.4h-36.5l-4.7 10.4h-13.2zm-6.4 41.4h26.6l-13.4-28.3zm102.1 7.6c1.4-.7 3.1-1.4 4.5-2.1l5.9 9.7c-3.6 2.4-7.6 4-11.8 5.2-4.7 1.2-9.4 1.9-14.1 1.9-5.7 0-11.3-.7-17-2.6-4.5-1.4-8.5-3.7-12-6.8-3.3-2.9-5.6-6.4-7.3-10.4-2.4-4.3-3.1-8.8-3.1-13s.9-8.5 2.6-12.5c1.6-3.8 4.2-7.3 7.3-9.9 3.3-3.1 7.4-5.2 11.6-6.6 5-1.7 10.4-2.4 15.6-2.4 4.7 0 9.4.5 13.9 1.7 4.3.9 8 2.6 11.8 4.7l-5.7 9.4c-1.2-.7-2.4-1.4-3.8-1.9s-3.1-.9-4.5-1.4c-1.7-.4-3.3-.7-5-.9s-3.3-.2-5.2-.2c-3.7 0-7.3.5-10.8 1.4-2.8.9-5.6 2.3-8 4.2-2.2 1.7-3.8 4-5 6.4-1.2 2.5-1.7 5.4-1.7 8.2s.5 5.9 1.9 8.5c1.2 2.6 2.8 5 5.2 6.6 2.4 1.9 5.2 3.6 8.3 4.5 3.5 1.2 7 1.7 10.8 1.7 1.9 0 3.8-.3 5.4-.5 1.9-.3 3.5-.7 5.2-1.2s3.3-1 5-1.7zm30.4 2.3h41.2v11.1h-53.9v-62.4h53.2v11h-40.5v12.5h35.8v10.4h-35.8zm-505.7-39.2c-2.8 0-5.1-1.5-6.5-3.6l-66.7 8.8-.3.9 33.7 9.8c3.1-2.1 6.8-3.4 10.8-3.4 10.4 0 18.9 8.4 18.9 18.9 0 10.4-8.4 18.9-18.9 18.9-10.4 0-18.9-8.4-18.9-18.9v-.2l-30.3-19.1.1-.1c-1.5.9-3.3 1.5-5.2 1.5-5.7 0-10.4-4.6-10.4-10.4s4.7-10.4 10.4-10.4c3.2 0 6 1.5 7.9 3.7l68.7-6.4c1.1-2.7 3.7-4.5 6.7-4.5 4 0 7.3 3.2 7.3 7.2s-3.3 7.3-7.3 7.3z" transform="matrix(.780518 0 0 .780518 30 174.204)"/></svg>