<?xml version="1.0" encoding="utf-8"?>
<!-- Generator: Adobe Illustrator 26.5.0, SVG Export Plug-In . SVG Version: 6.00 Build 0)  -->
<svg version="1.0" id="katman_1" xmlns="http://www.w3.org/2000/svg" xmlns:xlink="http://www.w3.org/1999/xlink" x="0px" y="0px"
	 viewBox="0 0 1190.55 841.89" style="enable-background:new 0 0 1190.55 841.89;" xml:space="preserve">
<style type="text/css">
	.st0{fill:#EF791A;}
	.st1{fill:#0584BD;}
</style>
<g id="Frame">
	<path id="Vector" class="st0" d="M1048,345.51h-21.27V481.7H1048V345.51z"/>
	<path id="Vector-2" class="st0" d="M973.29,391.15c-19.62,0-34.86,9.57-37.41,29.07h20.72c2.81-8.85,12.27-13.75,21.12-10.94
		c6.87,2.18,11.58,8.49,11.72,15.69v4.63h-21.51c-19.74,0-34.37,8.84-34.37,26.87c0,18.04,12.19,27.36,29.13,27.36
		c11.16,0.88,21.77-4.97,26.99-14.87h0.91v12.74h20.17v-56.06C1010.83,404.07,999.86,391.15,973.29,391.15z M968.78,467.5
		c-8.23,0-13.41-4.08-13.41-10.85c0-7.74,5.48-11.76,15.42-11.76h18.28v1.28c1.17,10.57-6.44,20.09-17.01,21.27
		c-1.19,0.13-2.39,0.15-3.59,0.06H968.78z"/>
	<path id="Vector-3" class="st0" d="M896.03,481.7v-45.89c-0.93-11.34,7.5-21.28,18.84-22.22c1.01-0.08,2.03-0.09,3.04-0.03h8.23
		v-20.23h-8.53c-9.16-0.64-17.81,4.29-21.94,12.49h-0.73v-12.49h-19.99v88.36H896.03z"/>
	<path id="Vector-4" class="st0" d="M861.41,462.14v19.56h-14.5c-20.35,0-31.56-9.45-31.56-29.92v-40.95H800.9v-17.49h14.44v-23.46
		h21.33v23.46h24.74v17.49h-24.74v38.45c-0.67,6.43,4,12.18,10.43,12.85c0.04,0,0.08,0.01,0.11,0.01c0.75,0.06,1.5,0.06,2.25,0
		H861.41z"/>
	<path id="Vector-5" class="st0" d="M731.13,481.7v-51.19c-0.93-10.49,6.82-19.75,17.32-20.68c0.95-0.08,1.9-0.1,2.85-0.04
		c12.19,0,19.07,6.89,19.07,20.41v51.49h21.27v-54.84c0-22.24-10.79-35.65-32.78-35.65c-11.32-0.69-22.13,4.79-28.27,14.32h-0.73
		v-12.19h-19.93v88.36H731.13z"/>
	<path id="Vector-6" class="st0" d="M653.01,466.4c-12.07,0.49-22.26-8.89-22.75-20.96c-0.03-0.75-0.02-1.5,0.02-2.25h65.08v-6.89
		c0-29.62-19.07-45.09-42.66-45.09c-25.17,0-43.51,18.28-43.51,46.37c0,28.09,17.06,46.37,43.51,46.37
		c22.18,0,36.56-11.82,40.95-29.07H673C670.87,461.47,665.26,466.4,653.01,466.4z M653.01,408.88c13.95,0,22.18,7.92,22.79,18.95
		h-45.64c1.09-11.48,11.24-19.94,22.73-18.95L653.01,408.88z"/>
	<path id="Vector-7" class="st0" d="M545.7,484.02c31.75,0,49.72-17.61,53.93-43.87h-21.57c-3.17,12.19-11.88,23.03-32.36,23.03
		c-20.47,0-37.96-14.44-37.96-46.01s16.88-46.01,37.96-46.01s29.55,11.09,32.36,22.85h21.57c-3.47-26.26-21.21-43.26-53.93-43.26
		c-35.22,0-60.94,24.37-60.94,66.66s25.47,67.03,60.94,67.03V484.02z"/>
	<path id="Vector-8" class="st1" d="M450.46,393.34v12.19h-1.04c-6.19-9.75-17.25-15.28-28.76-14.38
		c-20.6,0-39.24,16.39-39.24,45.28c0,28.88,18.28,45.46,39.24,45.46c11.3,0.56,21.97-5.19,27.73-14.93h0.98v18.65
		c0.83,7.12-4.27,13.56-11.39,14.39c-1.03,0.12-2.08,0.12-3.11-0.01h-43.14v19.01h42.66c23.7,0,36.56-13.28,36.56-34.98v-90.67
		H450.46z M426.45,462.51c-14.14,0-23.09-8.84-23.09-26.14c0-17.31,8.9-26.14,23.09-26.14c14.2,0,22.91,8.84,22.91,26.14
		C449.36,453.67,440.34,462.51,426.45,462.51z"/>
	<path id="Vector-9" class="st1" d="M307.93,481.7v-51.19c-0.89-10.53,6.92-19.79,17.45-20.69c0.93-0.08,1.86-0.09,2.79-0.03
		c12.19,0,19.07,6.89,19.07,20.41v51.49h21.27v-54.84c0-22.24-10.85-35.65-32.84-35.65c-11.34-0.71-22.18,4.77-28.34,14.32h-0.73
		v-12.19h-19.93v88.36H307.93z"/>
	<path id="Vector-10" class="st1" d="M268.69,393.34h-21.27v88.36h21.27V393.34z"/>
	<path id="Vector-11" class="st1" d="M210.37,420.76v-0.91c13.04-3.6,21.82-12.19,21.82-32.05c0-19.87-14.99-34.98-42.66-34.98H142
		V481.7h22v-51.19h26.75c12.49,0,18.71,6.09,18.71,18.77v32.42h22v-32.42C231.45,431.06,223.78,423.69,210.37,420.76z
		 M188.13,410.59h-24.37v-37.84h24.37c11.88,0,21.08,5,21.08,18.95S199.95,410.59,188.13,410.59z"/>
	<path id="Vector-12" class="st0" d="M258.08,379.14c7.74-0.07,13.95-6.41,13.88-14.15c-0.07-7.74-6.41-13.95-14.15-13.88
		c-7.74,0.07-13.95,6.41-13.88,14.15c0.05,5.65,3.49,10.71,8.72,12.85C254.37,378.85,256.22,379.2,258.08,379.14z"/>
	<path id="Vector-13" class="st0" d="M241.87,325.7c-5.16,2.17-9.84,5.34-13.77,9.32l9.93,9.99c11.01-10.99,28.84-10.99,39.85,0l0,0
		l9.99-9.99C275.84,322.91,257.69,319.23,241.87,325.7z"/>
</g>
</svg>
