<svg width="102" height="36" viewBox="0 0 102 36" fill="none" xmlns="http://www.w3.org/2000/svg">
<path d="M2.42519 27.8371H0V15.3065H2.42519V18.1258C3.07076 15.9268 4.26291 15.0398 5.8876 15.0398C6.76772 15.0398 7.69949 15.2827 8.03949 15.5234L7.67367 17.8027C7.10034 17.5233 6.47277 17.3751 5.83595 17.369C3.44304 17.3733 2.42519 19.9518 2.42519 23.2743V27.8371Z" fill="#DBDBDB"/>
<path d="M19.5932 10.8259H18.2332C16.2362 10.8259 15.8898 12.4351 15.9156 14.0442V15.3064H18.7949V17.3732H15.9242V27.837H13.4646V17.3732H11.0674V15.6859L13.4646 15.3064V14.0442C13.4646 10.7457 14.8762 8.49243 18.2332 8.49243H19.5932V10.8259Z" fill="#DBDBDB"/>
<path d="M52.3533 5.44339H50.7222V2.52652C50.7222 2.03989 50.3314 1.64507 49.8485 1.64387H31.2023C30.7194 1.64507 30.3286 2.03989 30.3286 2.52652V5.44339H28.6846V2.52652C28.6851 1.85474 28.9509 1.21081 29.4233 0.736807C29.8956 0.262808 30.5357 -0.00228989 31.2023 1.49038e-05H49.8593C51.243 0.0012119 52.3641 1.13202 52.3641 2.52652L52.3533 5.44339Z" fill="#FF0000"/>
<path d="M49.849 35.8721H31.2028C29.8195 35.8709 28.6982 34.7418 28.6958 33.3477V30.4287H30.3291V33.3477C30.3291 33.834 30.7202 34.2282 31.2028 34.2282H49.8597C50.3422 34.2282 50.7334 33.834 50.7334 33.3477V30.4287H52.3645V33.3477C52.364 34.0189 52.0984 34.6623 51.6265 35.1359C51.1545 35.6095 50.515 35.8744 49.849 35.8721Z" fill="#FF0000"/>
<path d="M30.6128 8.03491H33.8901V27.8371H30.6128V8.03491Z" fill="#FF0000"/>
<path fill-rule="evenodd" clip-rule="evenodd" d="M45.6934 8.03491H37.5679V27.8327H45.6934C47.9314 27.8313 49.6099 26.9992 50.7289 25.3366C51.8479 23.6739 52.4074 21.2053 52.4074 17.9306C52.4016 14.6964 51.8909 12.2385 50.8752 10.5571C49.8595 8.87563 48.1323 8.03491 45.6934 8.03491ZM48.2241 23.1008C47.6144 24.2719 46.664 24.8574 45.3728 24.8574H40.8474V11.0148H45.3664C46.2587 11.0148 46.976 11.2201 47.5183 11.6307C48.0591 12.0427 48.4629 12.7497 48.7298 13.7517C48.9966 14.7536 49.13 16.148 49.13 17.935C49.1358 20.2078 48.8338 21.9297 48.2241 23.1008Z" fill="#FF0000"/>
<path d="M56.924 27.1388C56.0274 26.5836 55.5791 25.4653 55.5791 23.7839V12.3615C55.5791 10.842 55.9872 9.74244 56.8035 9.06292C57.636 8.37664 58.6851 8.01419 59.7602 8.04147C61.4301 8.04147 62.869 8.06894 64.077 8.12388C65.2849 8.17882 66.6707 8.25111 68.2344 8.34075V11.095H60.7996C60.177 11.095 59.6978 11.2511 59.3621 11.5634C59.0243 11.8779 58.8543 12.3463 58.8543 12.973V16.482L67.0315 16.6706V19.273L58.8543 19.4617V22.8687C58.8543 24.1916 59.4941 24.853 60.7738 24.853H68.2344V27.6181C65.9964 27.8133 63.2965 27.9289 60.1347 27.9651C59.0088 27.9983 57.8963 27.712 56.924 27.1388Z" fill="#FF0000"/>
<path fill-rule="evenodd" clip-rule="evenodd" d="M80.7304 8.03491H76.573L70.1797 27.8371H73.5625L75.0537 23.1419H82.1615L83.6807 27.8371H87.1237L80.7304 8.03491ZM78.5981 10.8869L81.3697 20.1688H75.8265L78.5981 10.8869Z" fill="#FF0000"/>
<path d="M92.1595 27.8372C91.1834 27.7571 90.2137 27.6122 89.2566 27.4034V24.801C90.8547 24.9456 92.8352 25.0179 95.1979 25.0179C96.3887 25.0179 97.2896 24.848 97.9007 24.5082C98.5119 24.1685 98.8189 23.5511 98.8217 22.6562V21.7172C98.8217 21.0189 98.6259 20.4825 98.2343 20.108C97.8448 19.7307 97.2659 19.5442 96.502 19.5442H94.6643C92.7993 19.5442 91.4006 19.1328 90.4681 18.3102C89.5356 17.4875 89.0693 16.1552 89.0693 14.3133V13.294C89.0693 11.4348 89.5844 10.0663 90.6144 9.18873C91.6444 8.31114 93.1723 7.87307 95.1979 7.87452C96.2085 7.87988 97.2179 7.94287 98.2214 8.06319C99.3145 8.18897 100.251 8.33355 101.032 8.49692V11.0993C98.6345 10.936 96.814 10.8507 95.5702 10.8434C94.4512 10.8434 93.612 11.027 93.0525 11.3943C92.493 11.7615 92.2133 12.4367 92.2133 13.4198V14.0964C92.2133 14.9032 92.4284 15.4815 92.8588 15.8314C93.2892 16.1813 93.9513 16.3598 94.845 16.367H96.8958C98.5484 16.367 99.8052 16.8189 100.666 17.7225C101.527 18.6261 101.957 19.8196 101.957 21.3029V22.5651C101.957 24.621 101.388 26.0386 100.251 26.8179C99.113 27.5972 97.479 27.9861 95.3486 27.9846C94.3946 27.9933 93.3315 27.9442 92.1595 27.8372Z" fill="#FF0000"/>
</svg>
